# Low-poly rounded beveled cube, generated for DeterministicRouletteCase
# Size: 1 Unity unit, bevel radius: 0.14, bevel segments: 4
mtllib Rounded_Beveled_Cube.mtl
o Rounded_Beveled_Cube_Low
v 0.440829 -0.440829 -0.440829
v 0.447457 -0.447457 -0.425593
v 0.453333 -0.453333 -0.406667
v 0.457483 -0.457483 -0.384371
v 0.458995 -0.458995 -0.360000
v 0.458995 -0.458995 0.360000
v 0.457483 -0.457483 0.384371
v 0.453333 -0.453333 0.406667
v 0.447457 -0.447457 0.425593
v 0.440829 -0.440829 0.440829
v 0.447457 -0.425593 -0.447457
v 0.456039 -0.432029 -0.432029
v 0.463989 -0.437992 -0.411995
v 0.469825 -0.442369 -0.387456
v 0.472000 -0.444000 -0.360000
v 0.472000 -0.444000 0.360000
v 0.469825 -0.442369 0.387456
v 0.463989 -0.437992 0.411995
v 0.456039 -0.432029 0.432029
v 0.447457 -0.425593 0.447457
v 0.453333 -0.406667 -0.453333
v 0.463989 -0.411995 -0.437992
v 0.474310 -0.417155 -0.417155
v 0.482202 -0.421101 -0.390551
v 0.485220 -0.422610 -0.360000
v 0.485220 -0.422610 0.360000
v 0.482202 -0.421101 0.390551
v 0.474310 -0.417155 0.417155
v 0.463989 -0.411995 0.437992
v 0.453333 -0.406667 0.453333
v 0.457483 -0.384371 -0.457483
v 0.469825 -0.387456 -0.442369
v 0.482202 -0.390551 -0.421101
v 0.491993 -0.392998 -0.392998
v 0.495820 -0.393955 -0.360000
v 0.495820 -0.393955 0.360000
v 0.491993 -0.392998 0.392998
v 0.482202 -0.390551 0.421101
v 0.469825 -0.387456 0.442369
v 0.457483 -0.384371 0.457483
v 0.458995 -0.360000 -0.458995
v 0.472000 -0.360000 -0.444000
v 0.485220 -0.360000 -0.422610
v 0.495820 -0.360000 -0.393955
v 0.500000 -0.360000 -0.360000
v 0.500000 -0.360000 0.360000
v 0.495820 -0.360000 0.393955
v 0.485220 -0.360000 0.422610
v 0.472000 -0.360000 0.444000
v 0.458995 -0.360000 0.458995
v 0.458995 0.360000 -0.458995
v 0.472000 0.360000 -0.444000
v 0.485220 0.360000 -0.422610
v 0.495820 0.360000 -0.393955
v 0.500000 0.360000 -0.360000
v 0.500000 0.360000 0.360000
v 0.495820 0.360000 0.393955
v 0.485220 0.360000 0.422610
v 0.472000 0.360000 0.444000
v 0.458995 0.360000 0.458995
v 0.457483 0.384371 -0.457483
v 0.469825 0.387456 -0.442369
v 0.482202 0.390551 -0.421101
v 0.491993 0.392998 -0.392998
v 0.495820 0.393955 -0.360000
v 0.495820 0.393955 0.360000
v 0.491993 0.392998 0.392998
v 0.482202 0.390551 0.421101
v 0.469825 0.387456 0.442369
v 0.457483 0.384371 0.457483
v 0.453333 0.406667 -0.453333
v 0.463989 0.411995 -0.437992
v 0.474310 0.417155 -0.417155
v 0.482202 0.421101 -0.390551
v 0.485220 0.422610 -0.360000
v 0.485220 0.422610 0.360000
v 0.482202 0.421101 0.390551
v 0.474310 0.417155 0.417155
v 0.463989 0.411995 0.437992
v 0.453333 0.406667 0.453333
v 0.447457 0.425593 -0.447457
v 0.456039 0.432029 -0.432029
v 0.463989 0.437992 -0.411995
v 0.469825 0.442369 -0.387456
v 0.472000 0.444000 -0.360000
v 0.472000 0.444000 0.360000
v 0.469825 0.442369 0.387456
v 0.463989 0.437992 0.411995
v 0.456039 0.432029 0.432029
v 0.447457 0.425593 0.447457
v 0.440829 0.440829 -0.440829
v 0.447457 0.447457 -0.425593
v 0.453333 0.453333 -0.406667
v 0.457483 0.457483 -0.384371
v 0.458995 0.458995 -0.360000
v 0.458995 0.458995 0.360000
v 0.457483 0.457483 0.384371
v 0.453333 0.453333 0.406667
v 0.447457 0.447457 0.425593
v 0.440829 0.440829 0.440829
v -0.440829 -0.440829 0.440829
v -0.447457 -0.447457 0.425593
v -0.453333 -0.453333 0.406667
v -0.457483 -0.457483 0.384371
v -0.458995 -0.458995 0.360000
v -0.458995 -0.458995 -0.360000
v -0.457483 -0.457483 -0.384371
v -0.453333 -0.453333 -0.406667
v -0.447457 -0.447457 -0.425593
v -0.440829 -0.440829 -0.440829
v -0.447457 -0.425593 0.447457
v -0.456039 -0.432029 0.432029
v -0.463989 -0.437992 0.411995
v -0.469825 -0.442369 0.387456
v -0.472000 -0.444000 0.360000
v -0.472000 -0.444000 -0.360000
v -0.469825 -0.442369 -0.387456
v -0.463989 -0.437992 -0.411995
v -0.456039 -0.432029 -0.432029
v -0.447457 -0.425593 -0.447457
v -0.453333 -0.406667 0.453333
v -0.463989 -0.411995 0.437992
v -0.474310 -0.417155 0.417155
v -0.482202 -0.421101 0.390551
v -0.485220 -0.422610 0.360000
v -0.485220 -0.422610 -0.360000
v -0.482202 -0.421101 -0.390551
v -0.474310 -0.417155 -0.417155
v -0.463989 -0.411995 -0.437992
v -0.453333 -0.406667 -0.453333
v -0.457483 -0.384371 0.457483
v -0.469825 -0.387456 0.442369
v -0.482202 -0.390551 0.421101
v -0.491993 -0.392998 0.392998
v -0.495820 -0.393955 0.360000
v -0.495820 -0.393955 -0.360000
v -0.491993 -0.392998 -0.392998
v -0.482202 -0.390551 -0.421101
v -0.469825 -0.387456 -0.442369
v -0.457483 -0.384371 -0.457483
v -0.458995 -0.360000 0.458995
v -0.472000 -0.360000 0.444000
v -0.485220 -0.360000 0.422610
v -0.495820 -0.360000 0.393955
v -0.500000 -0.360000 0.360000
v -0.500000 -0.360000 -0.360000
v -0.495820 -0.360000 -0.393955
v -0.485220 -0.360000 -0.422610
v -0.472000 -0.360000 -0.444000
v -0.458995 -0.360000 -0.458995
v -0.458995 0.360000 0.458995
v -0.472000 0.360000 0.444000
v -0.485220 0.360000 0.422610
v -0.495820 0.360000 0.393955
v -0.500000 0.360000 0.360000
v -0.500000 0.360000 -0.360000
v -0.495820 0.360000 -0.393955
v -0.485220 0.360000 -0.422610
v -0.472000 0.360000 -0.444000
v -0.458995 0.360000 -0.458995
v -0.457483 0.384371 0.457483
v -0.469825 0.387456 0.442369
v -0.482202 0.390551 0.421101
v -0.491993 0.392998 0.392998
v -0.495820 0.393955 0.360000
v -0.495820 0.393955 -0.360000
v -0.491993 0.392998 -0.392998
v -0.482202 0.390551 -0.421101
v -0.469825 0.387456 -0.442369
v -0.457483 0.384371 -0.457483
v -0.453333 0.406667 0.453333
v -0.463989 0.411995 0.437992
v -0.474310 0.417155 0.417155
v -0.482202 0.421101 0.390551
v -0.485220 0.422610 0.360000
v -0.485220 0.422610 -0.360000
v -0.482202 0.421101 -0.390551
v -0.474310 0.417155 -0.417155
v -0.463989 0.411995 -0.437992
v -0.453333 0.406667 -0.453333
v -0.447457 0.425593 0.447457
v -0.456039 0.432029 0.432029
v -0.463989 0.437992 0.411995
v -0.469825 0.442369 0.387456
v -0.472000 0.444000 0.360000
v -0.472000 0.444000 -0.360000
v -0.469825 0.442369 -0.387456
v -0.463989 0.437992 -0.411995
v -0.456039 0.432029 -0.432029
v -0.447457 0.425593 -0.447457
v -0.440829 0.440829 0.440829
v -0.447457 0.447457 0.425593
v -0.453333 0.453333 0.406667
v -0.457483 0.457483 0.384371
v -0.458995 0.458995 0.360000
v -0.458995 0.458995 -0.360000
v -0.457483 0.457483 -0.384371
v -0.453333 0.453333 -0.406667
v -0.447457 0.447457 -0.425593
v -0.440829 0.440829 -0.440829
v -0.440829 0.440829 -0.440829
v -0.425593 0.447457 -0.447457
v -0.406667 0.453333 -0.453333
v -0.384371 0.457483 -0.457483
v -0.360000 0.458995 -0.458995
v 0.360000 0.458995 -0.458995
v 0.384371 0.457483 -0.457483
v 0.406667 0.453333 -0.453333
v 0.425593 0.447457 -0.447457
v 0.440829 0.440829 -0.440829
v -0.447457 0.447457 -0.425593
v -0.432029 0.456039 -0.432029
v -0.411995 0.463989 -0.437992
v -0.387456 0.469825 -0.442369
v -0.360000 0.472000 -0.444000
v 0.360000 0.472000 -0.444000
v 0.387456 0.469825 -0.442369
v 0.411995 0.463989 -0.437992
v 0.432029 0.456039 -0.432029
v 0.447457 0.447457 -0.425593
v -0.453333 0.453333 -0.406667
v -0.437992 0.463989 -0.411995
v -0.417155 0.474310 -0.417155
v -0.390551 0.482202 -0.421101
v -0.360000 0.485220 -0.422610
v 0.360000 0.485220 -0.422610
v 0.390551 0.482202 -0.421101
v 0.417155 0.474310 -0.417155
v 0.437992 0.463989 -0.411995
v 0.453333 0.453333 -0.406667
v -0.457483 0.457483 -0.384371
v -0.442369 0.469825 -0.387456
v -0.421101 0.482202 -0.390551
v -0.392998 0.491993 -0.392998
v -0.360000 0.495820 -0.393955
v 0.360000 0.495820 -0.393955
v 0.392998 0.491993 -0.392998
v 0.421101 0.482202 -0.390551
v 0.442369 0.469825 -0.387456
v 0.457483 0.457483 -0.384371
v -0.458995 0.458995 -0.360000
v -0.444000 0.472000 -0.360000
v -0.422610 0.485220 -0.360000
v -0.393955 0.495820 -0.360000
v -0.360000 0.500000 -0.360000
v 0.360000 0.500000 -0.360000
v 0.393955 0.495820 -0.360000
v 0.422610 0.485220 -0.360000
v 0.444000 0.472000 -0.360000
v 0.458995 0.458995 -0.360000
v -0.458995 0.458995 0.360000
v -0.444000 0.472000 0.360000
v -0.422610 0.485220 0.360000
v -0.393955 0.495820 0.360000
v -0.360000 0.500000 0.360000
v 0.360000 0.500000 0.360000
v 0.393955 0.495820 0.360000
v 0.422610 0.485220 0.360000
v 0.444000 0.472000 0.360000
v 0.458995 0.458995 0.360000
v -0.457483 0.457483 0.384371
v -0.442369 0.469825 0.387456
v -0.421101 0.482202 0.390551
v -0.392998 0.491993 0.392998
v -0.360000 0.495820 0.393955
v 0.360000 0.495820 0.393955
v 0.392998 0.491993 0.392998
v 0.421101 0.482202 0.390551
v 0.442369 0.469825 0.387456
v 0.457483 0.457483 0.384371
v -0.453333 0.453333 0.406667
v -0.437992 0.463989 0.411995
v -0.417155 0.474310 0.417155
v -0.390551 0.482202 0.421101
v -0.360000 0.485220 0.422610
v 0.360000 0.485220 0.422610
v 0.390551 0.482202 0.421101
v 0.417155 0.474310 0.417155
v 0.437992 0.463989 0.411995
v 0.453333 0.453333 0.406667
v -0.447457 0.447457 0.425593
v -0.432029 0.456039 0.432029
v -0.411995 0.463989 0.437992
v -0.387456 0.469825 0.442369
v -0.360000 0.472000 0.444000
v 0.360000 0.472000 0.444000
v 0.387456 0.469825 0.442369
v 0.411995 0.463989 0.437992
v 0.432029 0.456039 0.432029
v 0.447457 0.447457 0.425593
v -0.440829 0.440829 0.440829
v -0.425593 0.447457 0.447457
v -0.406667 0.453333 0.453333
v -0.384371 0.457483 0.457483
v -0.360000 0.458995 0.458995
v 0.360000 0.458995 0.458995
v 0.384371 0.457483 0.457483
v 0.406667 0.453333 0.453333
v 0.425593 0.447457 0.447457
v 0.440829 0.440829 0.440829
v 0.440829 -0.440829 -0.440829
v 0.425593 -0.447457 -0.447457
v 0.406667 -0.453333 -0.453333
v 0.384371 -0.457483 -0.457483
v 0.360000 -0.458995 -0.458995
v -0.360000 -0.458995 -0.458995
v -0.384371 -0.457483 -0.457483
v -0.406667 -0.453333 -0.453333
v -0.425593 -0.447457 -0.447457
v -0.440829 -0.440829 -0.440829
v 0.447457 -0.447457 -0.425593
v 0.432029 -0.456039 -0.432029
v 0.411995 -0.463989 -0.437992
v 0.387456 -0.469825 -0.442369
v 0.360000 -0.472000 -0.444000
v -0.360000 -0.472000 -0.444000
v -0.387456 -0.469825 -0.442369
v -0.411995 -0.463989 -0.437992
v -0.432029 -0.456039 -0.432029
v -0.447457 -0.447457 -0.425593
v 0.453333 -0.453333 -0.406667
v 0.437992 -0.463989 -0.411995
v 0.417155 -0.474310 -0.417155
v 0.390551 -0.482202 -0.421101
v 0.360000 -0.485220 -0.422610
v -0.360000 -0.485220 -0.422610
v -0.390551 -0.482202 -0.421101
v -0.417155 -0.474310 -0.417155
v -0.437992 -0.463989 -0.411995
v -0.453333 -0.453333 -0.406667
v 0.457483 -0.457483 -0.384371
v 0.442369 -0.469825 -0.387456
v 0.421101 -0.482202 -0.390551
v 0.392998 -0.491993 -0.392998
v 0.360000 -0.495820 -0.393955
v -0.360000 -0.495820 -0.393955
v -0.392998 -0.491993 -0.392998
v -0.421101 -0.482202 -0.390551
v -0.442369 -0.469825 -0.387456
v -0.457483 -0.457483 -0.384371
v 0.458995 -0.458995 -0.360000
v 0.444000 -0.472000 -0.360000
v 0.422610 -0.485220 -0.360000
v 0.393955 -0.495820 -0.360000
v 0.360000 -0.500000 -0.360000
v -0.360000 -0.500000 -0.360000
v -0.393955 -0.495820 -0.360000
v -0.422610 -0.485220 -0.360000
v -0.444000 -0.472000 -0.360000
v -0.458995 -0.458995 -0.360000
v 0.458995 -0.458995 0.360000
v 0.444000 -0.472000 0.360000
v 0.422610 -0.485220 0.360000
v 0.393955 -0.495820 0.360000
v 0.360000 -0.500000 0.360000
v -0.360000 -0.500000 0.360000
v -0.393955 -0.495820 0.360000
v -0.422610 -0.485220 0.360000
v -0.444000 -0.472000 0.360000
v -0.458995 -0.458995 0.360000
v 0.457483 -0.457483 0.384371
v 0.442369 -0.469825 0.387456
v 0.421101 -0.482202 0.390551
v 0.392998 -0.491993 0.392998
v 0.360000 -0.495820 0.393955
v -0.360000 -0.495820 0.393955
v -0.392998 -0.491993 0.392998
v -0.421101 -0.482202 0.390551
v -0.442369 -0.469825 0.387456
v -0.457483 -0.457483 0.384371
v 0.453333 -0.453333 0.406667
v 0.437992 -0.463989 0.411995
v 0.417155 -0.474310 0.417155
v 0.390551 -0.482202 0.421101
v 0.360000 -0.485220 0.422610
v -0.360000 -0.485220 0.422610
v -0.390551 -0.482202 0.421101
v -0.417155 -0.474310 0.417155
v -0.437992 -0.463989 0.411995
v -0.453333 -0.453333 0.406667
v 0.447457 -0.447457 0.425593
v 0.432029 -0.456039 0.432029
v 0.411995 -0.463989 0.437992
v 0.387456 -0.469825 0.442369
v 0.360000 -0.472000 0.444000
v -0.360000 -0.472000 0.444000
v -0.387456 -0.469825 0.442369
v -0.411995 -0.463989 0.437992
v -0.432029 -0.456039 0.432029
v -0.447457 -0.447457 0.425593
v 0.440829 -0.440829 0.440829
v 0.425593 -0.447457 0.447457
v 0.406667 -0.453333 0.453333
v 0.384371 -0.457483 0.457483
v 0.360000 -0.458995 0.458995
v -0.360000 -0.458995 0.458995
v -0.384371 -0.457483 0.457483
v -0.406667 -0.453333 0.453333
v -0.425593 -0.447457 0.447457
v -0.440829 -0.440829 0.440829
v -0.440829 -0.440829 0.440829
v -0.447457 -0.425593 0.447457
v -0.453333 -0.406667 0.453333
v -0.457483 -0.384371 0.457483
v -0.458995 -0.360000 0.458995
v -0.458995 0.360000 0.458995
v -0.457483 0.384371 0.457483
v -0.453333 0.406667 0.453333
v -0.447457 0.425593 0.447457
v -0.440829 0.440829 0.440829
v -0.425593 -0.447457 0.447457
v -0.432029 -0.432029 0.456039
v -0.437992 -0.411995 0.463989
v -0.442369 -0.387456 0.469825
v -0.444000 -0.360000 0.472000
v -0.444000 0.360000 0.472000
v -0.442369 0.387456 0.469825
v -0.437992 0.411995 0.463989
v -0.432029 0.432029 0.456039
v -0.425593 0.447457 0.447457
v -0.406667 -0.453333 0.453333
v -0.411995 -0.437992 0.463989
v -0.417155 -0.417155 0.474310
v -0.421101 -0.390551 0.482202
v -0.422610 -0.360000 0.485220
v -0.422610 0.360000 0.485220
v -0.421101 0.390551 0.482202
v -0.417155 0.417155 0.474310
v -0.411995 0.437992 0.463989
v -0.406667 0.453333 0.453333
v -0.384371 -0.457483 0.457483
v -0.387456 -0.442369 0.469825
v -0.390551 -0.421101 0.482202
v -0.392998 -0.392998 0.491993
v -0.393955 -0.360000 0.495820
v -0.393955 0.360000 0.495820
v -0.392998 0.392998 0.491993
v -0.390551 0.421101 0.482202
v -0.387456 0.442369 0.469825
v -0.384371 0.457483 0.457483
v -0.360000 -0.458995 0.458995
v -0.360000 -0.444000 0.472000
v -0.360000 -0.422610 0.485220
v -0.360000 -0.393955 0.495820
v -0.360000 -0.360000 0.500000
v -0.360000 0.360000 0.500000
v -0.360000 0.393955 0.495820
v -0.360000 0.422610 0.485220
v -0.360000 0.444000 0.472000
v -0.360000 0.458995 0.458995
v 0.360000 -0.458995 0.458995
v 0.360000 -0.444000 0.472000
v 0.360000 -0.422610 0.485220
v 0.360000 -0.393955 0.495820
v 0.360000 -0.360000 0.500000
v 0.360000 0.360000 0.500000
v 0.360000 0.393955 0.495820
v 0.360000 0.422610 0.485220
v 0.360000 0.444000 0.472000
v 0.360000 0.458995 0.458995
v 0.384371 -0.457483 0.457483
v 0.387456 -0.442369 0.469825
v 0.390551 -0.421101 0.482202
v 0.392998 -0.392998 0.491993
v 0.393955 -0.360000 0.495820
v 0.393955 0.360000 0.495820
v 0.392998 0.392998 0.491993
v 0.390551 0.421101 0.482202
v 0.387456 0.442369 0.469825
v 0.384371 0.457483 0.457483
v 0.406667 -0.453333 0.453333
v 0.411995 -0.437992 0.463989
v 0.417155 -0.417155 0.474310
v 0.421101 -0.390551 0.482202
v 0.422610 -0.360000 0.485220
v 0.422610 0.360000 0.485220
v 0.421101 0.390551 0.482202
v 0.417155 0.417155 0.474310
v 0.411995 0.437992 0.463989
v 0.406667 0.453333 0.453333
v 0.425593 -0.447457 0.447457
v 0.432029 -0.432029 0.456039
v 0.437992 -0.411995 0.463989
v 0.442369 -0.387456 0.469825
v 0.444000 -0.360000 0.472000
v 0.444000 0.360000 0.472000
v 0.442369 0.387456 0.469825
v 0.437992 0.411995 0.463989
v 0.432029 0.432029 0.456039
v 0.425593 0.447457 0.447457
v 0.440829 -0.440829 0.440829
v 0.447457 -0.425593 0.447457
v 0.453333 -0.406667 0.453333
v 0.457483 -0.384371 0.457483
v 0.458995 -0.360000 0.458995
v 0.458995 0.360000 0.458995
v 0.457483 0.384371 0.457483
v 0.453333 0.406667 0.453333
v 0.447457 0.425593 0.447457
v 0.440829 0.440829 0.440829
v -0.440829 0.440829 -0.440829
v -0.447457 0.425593 -0.447457
v -0.453333 0.406667 -0.453333
v -0.457483 0.384371 -0.457483
v -0.458995 0.360000 -0.458995
v -0.458995 -0.360000 -0.458995
v -0.457483 -0.384371 -0.457483
v -0.453333 -0.406667 -0.453333
v -0.447457 -0.425593 -0.447457
v -0.440829 -0.440829 -0.440829
v -0.425593 0.447457 -0.447457
v -0.432029 0.432029 -0.456039
v -0.437992 0.411995 -0.463989
v -0.442369 0.387456 -0.469825
v -0.444000 0.360000 -0.472000
v -0.444000 -0.360000 -0.472000
v -0.442369 -0.387456 -0.469825
v -0.437992 -0.411995 -0.463989
v -0.432029 -0.432029 -0.456039
v -0.425593 -0.447457 -0.447457
v -0.406667 0.453333 -0.453333
v -0.411995 0.437992 -0.463989
v -0.417155 0.417155 -0.474310
v -0.421101 0.390551 -0.482202
v -0.422610 0.360000 -0.485220
v -0.422610 -0.360000 -0.485220
v -0.421101 -0.390551 -0.482202
v -0.417155 -0.417155 -0.474310
v -0.411995 -0.437992 -0.463989
v -0.406667 -0.453333 -0.453333
v -0.384371 0.457483 -0.457483
v -0.387456 0.442369 -0.469825
v -0.390551 0.421101 -0.482202
v -0.392998 0.392998 -0.491993
v -0.393955 0.360000 -0.495820
v -0.393955 -0.360000 -0.495820
v -0.392998 -0.392998 -0.491993
v -0.390551 -0.421101 -0.482202
v -0.387456 -0.442369 -0.469825
v -0.384371 -0.457483 -0.457483
v -0.360000 0.458995 -0.458995
v -0.360000 0.444000 -0.472000
v -0.360000 0.422610 -0.485220
v -0.360000 0.393955 -0.495820
v -0.360000 0.360000 -0.500000
v -0.360000 -0.360000 -0.500000
v -0.360000 -0.393955 -0.495820
v -0.360000 -0.422610 -0.485220
v -0.360000 -0.444000 -0.472000
v -0.360000 -0.458995 -0.458995
v 0.360000 0.458995 -0.458995
v 0.360000 0.444000 -0.472000
v 0.360000 0.422610 -0.485220
v 0.360000 0.393955 -0.495820
v 0.360000 0.360000 -0.500000
v 0.360000 -0.360000 -0.500000
v 0.360000 -0.393955 -0.495820
v 0.360000 -0.422610 -0.485220
v 0.360000 -0.444000 -0.472000
v 0.360000 -0.458995 -0.458995
v 0.384371 0.457483 -0.457483
v 0.387456 0.442369 -0.469825
v 0.390551 0.421101 -0.482202
v 0.392998 0.392998 -0.491993
v 0.393955 0.360000 -0.495820
v 0.393955 -0.360000 -0.495820
v 0.392998 -0.392998 -0.491993
v 0.390551 -0.421101 -0.482202
v 0.387456 -0.442369 -0.469825
v 0.384371 -0.457483 -0.457483
v 0.406667 0.453333 -0.453333
v 0.411995 0.437992 -0.463989
v 0.417155 0.417155 -0.474310
v 0.421101 0.390551 -0.482202
v 0.422610 0.360000 -0.485220
v 0.422610 -0.360000 -0.485220
v 0.421101 -0.390551 -0.482202
v 0.417155 -0.417155 -0.474310
v 0.411995 -0.437992 -0.463989
v 0.406667 -0.453333 -0.453333
v 0.425593 0.447457 -0.447457
v 0.432029 0.432029 -0.456039
v 0.437992 0.411995 -0.463989
v 0.442369 0.387456 -0.469825
v 0.444000 0.360000 -0.472000
v 0.444000 -0.360000 -0.472000
v 0.442369 -0.387456 -0.469825
v 0.437992 -0.411995 -0.463989
v 0.432029 -0.432029 -0.456039
v 0.425593 -0.447457 -0.447457
v 0.440829 0.440829 -0.440829
v 0.447457 0.425593 -0.447457
v 0.453333 0.406667 -0.453333
v 0.457483 0.384371 -0.457483
v 0.458995 0.360000 -0.458995
v 0.458995 -0.360000 -0.458995
v 0.457483 -0.384371 -0.457483
v 0.453333 -0.406667 -0.453333
v 0.447457 -0.425593 -0.447457
v 0.440829 -0.440829 -0.440829
vt 0.000000 0.000000
vt 0.111111 0.000000
vt 0.222222 0.000000
vt 0.333333 0.000000
vt 0.444444 0.000000
vt 0.555556 0.000000
vt 0.666667 0.000000
vt 0.777778 0.000000
vt 0.888889 0.000000
vt 1.000000 0.000000
vt 0.000000 0.111111
vt 0.111111 0.111111
vt 0.222222 0.111111
vt 0.333333 0.111111
vt 0.444444 0.111111
vt 0.555556 0.111111
vt 0.666667 0.111111
vt 0.777778 0.111111
vt 0.888889 0.111111
vt 1.000000 0.111111
vt 0.000000 0.222222
vt 0.111111 0.222222
vt 0.222222 0.222222
vt 0.333333 0.222222
vt 0.444444 0.222222
vt 0.555556 0.222222
vt 0.666667 0.222222
vt 0.777778 0.222222
vt 0.888889 0.222222
vt 1.000000 0.222222
vt 0.000000 0.333333
vt 0.111111 0.333333
vt 0.222222 0.333333
vt 0.333333 0.333333
vt 0.444444 0.333333
vt 0.555556 0.333333
vt 0.666667 0.333333
vt 0.777778 0.333333
vt 0.888889 0.333333
vt 1.000000 0.333333
vt 0.000000 0.444444
vt 0.111111 0.444444
vt 0.222222 0.444444
vt 0.333333 0.444444
vt 0.444444 0.444444
vt 0.555556 0.444444
vt 0.666667 0.444444
vt 0.777778 0.444444
vt 0.888889 0.444444
vt 1.000000 0.444444
vt 0.000000 0.555556
vt 0.111111 0.555556
vt 0.222222 0.555556
vt 0.333333 0.555556
vt 0.444444 0.555556
vt 0.555556 0.555556
vt 0.666667 0.555556
vt 0.777778 0.555556
vt 0.888889 0.555556
vt 1.000000 0.555556
vt 0.000000 0.666667
vt 0.111111 0.666667
vt 0.222222 0.666667
vt 0.333333 0.666667
vt 0.444444 0.666667
vt 0.555556 0.666667
vt 0.666667 0.666667
vt 0.777778 0.666667
vt 0.888889 0.666667
vt 1.000000 0.666667
vt 0.000000 0.777778
vt 0.111111 0.777778
vt 0.222222 0.777778
vt 0.333333 0.777778
vt 0.444444 0.777778
vt 0.555556 0.777778
vt 0.666667 0.777778
vt 0.777778 0.777778
vt 0.888889 0.777778
vt 1.000000 0.777778
vt 0.000000 0.888889
vt 0.111111 0.888889
vt 0.222222 0.888889
vt 0.333333 0.888889
vt 0.444444 0.888889
vt 0.555556 0.888889
vt 0.666667 0.888889
vt 0.777778 0.888889
vt 0.888889 0.888889
vt 1.000000 0.888889
vt 0.000000 1.000000
vt 0.111111 1.000000
vt 0.222222 1.000000
vt 0.333333 1.000000
vt 0.444444 1.000000
vt 0.555556 1.000000
vt 0.666667 1.000000
vt 0.777778 1.000000
vt 0.888889 1.000000
vt 1.000000 1.000000
vt 0.000000 0.000000
vt 0.111111 0.000000
vt 0.222222 0.000000
vt 0.333333 0.000000
vt 0.444444 0.000000
vt 0.555556 0.000000
vt 0.666667 0.000000
vt 0.777778 0.000000
vt 0.888889 0.000000
vt 1.000000 0.000000
vt 0.000000 0.111111
vt 0.111111 0.111111
vt 0.222222 0.111111
vt 0.333333 0.111111
vt 0.444444 0.111111
vt 0.555556 0.111111
vt 0.666667 0.111111
vt 0.777778 0.111111
vt 0.888889 0.111111
vt 1.000000 0.111111
vt 0.000000 0.222222
vt 0.111111 0.222222
vt 0.222222 0.222222
vt 0.333333 0.222222
vt 0.444444 0.222222
vt 0.555556 0.222222
vt 0.666667 0.222222
vt 0.777778 0.222222
vt 0.888889 0.222222
vt 1.000000 0.222222
vt 0.000000 0.333333
vt 0.111111 0.333333
vt 0.222222 0.333333
vt 0.333333 0.333333
vt 0.444444 0.333333
vt 0.555556 0.333333
vt 0.666667 0.333333
vt 0.777778 0.333333
vt 0.888889 0.333333
vt 1.000000 0.333333
vt 0.000000 0.444444
vt 0.111111 0.444444
vt 0.222222 0.444444
vt 0.333333 0.444444
vt 0.444444 0.444444
vt 0.555556 0.444444
vt 0.666667 0.444444
vt 0.777778 0.444444
vt 0.888889 0.444444
vt 1.000000 0.444444
vt 0.000000 0.555556
vt 0.111111 0.555556
vt 0.222222 0.555556
vt 0.333333 0.555556
vt 0.444444 0.555556
vt 0.555556 0.555556
vt 0.666667 0.555556
vt 0.777778 0.555556
vt 0.888889 0.555556
vt 1.000000 0.555556
vt 0.000000 0.666667
vt 0.111111 0.666667
vt 0.222222 0.666667
vt 0.333333 0.666667
vt 0.444444 0.666667
vt 0.555556 0.666667
vt 0.666667 0.666667
vt 0.777778 0.666667
vt 0.888889 0.666667
vt 1.000000 0.666667
vt 0.000000 0.777778
vt 0.111111 0.777778
vt 0.222222 0.777778
vt 0.333333 0.777778
vt 0.444444 0.777778
vt 0.555556 0.777778
vt 0.666667 0.777778
vt 0.777778 0.777778
vt 0.888889 0.777778
vt 1.000000 0.777778
vt 0.000000 0.888889
vt 0.111111 0.888889
vt 0.222222 0.888889
vt 0.333333 0.888889
vt 0.444444 0.888889
vt 0.555556 0.888889
vt 0.666667 0.888889
vt 0.777778 0.888889
vt 0.888889 0.888889
vt 1.000000 0.888889
vt 0.000000 1.000000
vt 0.111111 1.000000
vt 0.222222 1.000000
vt 0.333333 1.000000
vt 0.444444 1.000000
vt 0.555556 1.000000
vt 0.666667 1.000000
vt 0.777778 1.000000
vt 0.888889 1.000000
vt 1.000000 1.000000
vt 0.000000 0.000000
vt 0.111111 0.000000
vt 0.222222 0.000000
vt 0.333333 0.000000
vt 0.444444 0.000000
vt 0.555556 0.000000
vt 0.666667 0.000000
vt 0.777778 0.000000
vt 0.888889 0.000000
vt 1.000000 0.000000
vt 0.000000 0.111111
vt 0.111111 0.111111
vt 0.222222 0.111111
vt 0.333333 0.111111
vt 0.444444 0.111111
vt 0.555556 0.111111
vt 0.666667 0.111111
vt 0.777778 0.111111
vt 0.888889 0.111111
vt 1.000000 0.111111
vt 0.000000 0.222222
vt 0.111111 0.222222
vt 0.222222 0.222222
vt 0.333333 0.222222
vt 0.444444 0.222222
vt 0.555556 0.222222
vt 0.666667 0.222222
vt 0.777778 0.222222
vt 0.888889 0.222222
vt 1.000000 0.222222
vt 0.000000 0.333333
vt 0.111111 0.333333
vt 0.222222 0.333333
vt 0.333333 0.333333
vt 0.444444 0.333333
vt 0.555556 0.333333
vt 0.666667 0.333333
vt 0.777778 0.333333
vt 0.888889 0.333333
vt 1.000000 0.333333
vt 0.000000 0.444444
vt 0.111111 0.444444
vt 0.222222 0.444444
vt 0.333333 0.444444
vt 0.444444 0.444444
vt 0.555556 0.444444
vt 0.666667 0.444444
vt 0.777778 0.444444
vt 0.888889 0.444444
vt 1.000000 0.444444
vt 0.000000 0.555556
vt 0.111111 0.555556
vt 0.222222 0.555556
vt 0.333333 0.555556
vt 0.444444 0.555556
vt 0.555556 0.555556
vt 0.666667 0.555556
vt 0.777778 0.555556
vt 0.888889 0.555556
vt 1.000000 0.555556
vt 0.000000 0.666667
vt 0.111111 0.666667
vt 0.222222 0.666667
vt 0.333333 0.666667
vt 0.444444 0.666667
vt 0.555556 0.666667
vt 0.666667 0.666667
vt 0.777778 0.666667
vt 0.888889 0.666667
vt 1.000000 0.666667
vt 0.000000 0.777778
vt 0.111111 0.777778
vt 0.222222 0.777778
vt 0.333333 0.777778
vt 0.444444 0.777778
vt 0.555556 0.777778
vt 0.666667 0.777778
vt 0.777778 0.777778
vt 0.888889 0.777778
vt 1.000000 0.777778
vt 0.000000 0.888889
vt 0.111111 0.888889
vt 0.222222 0.888889
vt 0.333333 0.888889
vt 0.444444 0.888889
vt 0.555556 0.888889
vt 0.666667 0.888889
vt 0.777778 0.888889
vt 0.888889 0.888889
vt 1.000000 0.888889
vt 0.000000 1.000000
vt 0.111111 1.000000
vt 0.222222 1.000000
vt 0.333333 1.000000
vt 0.444444 1.000000
vt 0.555556 1.000000
vt 0.666667 1.000000
vt 0.777778 1.000000
vt 0.888889 1.000000
vt 1.000000 1.000000
vt 0.000000 0.000000
vt 0.111111 0.000000
vt 0.222222 0.000000
vt 0.333333 0.000000
vt 0.444444 0.000000
vt 0.555556 0.000000
vt 0.666667 0.000000
vt 0.777778 0.000000
vt 0.888889 0.000000
vt 1.000000 0.000000
vt 0.000000 0.111111
vt 0.111111 0.111111
vt 0.222222 0.111111
vt 0.333333 0.111111
vt 0.444444 0.111111
vt 0.555556 0.111111
vt 0.666667 0.111111
vt 0.777778 0.111111
vt 0.888889 0.111111
vt 1.000000 0.111111
vt 0.000000 0.222222
vt 0.111111 0.222222
vt 0.222222 0.222222
vt 0.333333 0.222222
vt 0.444444 0.222222
vt 0.555556 0.222222
vt 0.666667 0.222222
vt 0.777778 0.222222
vt 0.888889 0.222222
vt 1.000000 0.222222
vt 0.000000 0.333333
vt 0.111111 0.333333
vt 0.222222 0.333333
vt 0.333333 0.333333
vt 0.444444 0.333333
vt 0.555556 0.333333
vt 0.666667 0.333333
vt 0.777778 0.333333
vt 0.888889 0.333333
vt 1.000000 0.333333
vt 0.000000 0.444444
vt 0.111111 0.444444
vt 0.222222 0.444444
vt 0.333333 0.444444
vt 0.444444 0.444444
vt 0.555556 0.444444
vt 0.666667 0.444444
vt 0.777778 0.444444
vt 0.888889 0.444444
vt 1.000000 0.444444
vt 0.000000 0.555556
vt 0.111111 0.555556
vt 0.222222 0.555556
vt 0.333333 0.555556
vt 0.444444 0.555556
vt 0.555556 0.555556
vt 0.666667 0.555556
vt 0.777778 0.555556
vt 0.888889 0.555556
vt 1.000000 0.555556
vt 0.000000 0.666667
vt 0.111111 0.666667
vt 0.222222 0.666667
vt 0.333333 0.666667
vt 0.444444 0.666667
vt 0.555556 0.666667
vt 0.666667 0.666667
vt 0.777778 0.666667
vt 0.888889 0.666667
vt 1.000000 0.666667
vt 0.000000 0.777778
vt 0.111111 0.777778
vt 0.222222 0.777778
vt 0.333333 0.777778
vt 0.444444 0.777778
vt 0.555556 0.777778
vt 0.666667 0.777778
vt 0.777778 0.777778
vt 0.888889 0.777778
vt 1.000000 0.777778
vt 0.000000 0.888889
vt 0.111111 0.888889
vt 0.222222 0.888889
vt 0.333333 0.888889
vt 0.444444 0.888889
vt 0.555556 0.888889
vt 0.666667 0.888889
vt 0.777778 0.888889
vt 0.888889 0.888889
vt 1.000000 0.888889
vt 0.000000 1.000000
vt 0.111111 1.000000
vt 0.222222 1.000000
vt 0.333333 1.000000
vt 0.444444 1.000000
vt 0.555556 1.000000
vt 0.666667 1.000000
vt 0.777778 1.000000
vt 0.888889 1.000000
vt 1.000000 1.000000
vt 0.000000 0.000000
vt 0.111111 0.000000
vt 0.222222 0.000000
vt 0.333333 0.000000
vt 0.444444 0.000000
vt 0.555556 0.000000
vt 0.666667 0.000000
vt 0.777778 0.000000
vt 0.888889 0.000000
vt 1.000000 0.000000
vt 0.000000 0.111111
vt 0.111111 0.111111
vt 0.222222 0.111111
vt 0.333333 0.111111
vt 0.444444 0.111111
vt 0.555556 0.111111
vt 0.666667 0.111111
vt 0.777778 0.111111
vt 0.888889 0.111111
vt 1.000000 0.111111
vt 0.000000 0.222222
vt 0.111111 0.222222
vt 0.222222 0.222222
vt 0.333333 0.222222
vt 0.444444 0.222222
vt 0.555556 0.222222
vt 0.666667 0.222222
vt 0.777778 0.222222
vt 0.888889 0.222222
vt 1.000000 0.222222
vt 0.000000 0.333333
vt 0.111111 0.333333
vt 0.222222 0.333333
vt 0.333333 0.333333
vt 0.444444 0.333333
vt 0.555556 0.333333
vt 0.666667 0.333333
vt 0.777778 0.333333
vt 0.888889 0.333333
vt 1.000000 0.333333
vt 0.000000 0.444444
vt 0.111111 0.444444
vt 0.222222 0.444444
vt 0.333333 0.444444
vt 0.444444 0.444444
vt 0.555556 0.444444
vt 0.666667 0.444444
vt 0.777778 0.444444
vt 0.888889 0.444444
vt 1.000000 0.444444
vt 0.000000 0.555556
vt 0.111111 0.555556
vt 0.222222 0.555556
vt 0.333333 0.555556
vt 0.444444 0.555556
vt 0.555556 0.555556
vt 0.666667 0.555556
vt 0.777778 0.555556
vt 0.888889 0.555556
vt 1.000000 0.555556
vt 0.000000 0.666667
vt 0.111111 0.666667
vt 0.222222 0.666667
vt 0.333333 0.666667
vt 0.444444 0.666667
vt 0.555556 0.666667
vt 0.666667 0.666667
vt 0.777778 0.666667
vt 0.888889 0.666667
vt 1.000000 0.666667
vt 0.000000 0.777778
vt 0.111111 0.777778
vt 0.222222 0.777778
vt 0.333333 0.777778
vt 0.444444 0.777778
vt 0.555556 0.777778
vt 0.666667 0.777778
vt 0.777778 0.777778
vt 0.888889 0.777778
vt 1.000000 0.777778
vt 0.000000 0.888889
vt 0.111111 0.888889
vt 0.222222 0.888889
vt 0.333333 0.888889
vt 0.444444 0.888889
vt 0.555556 0.888889
vt 0.666667 0.888889
vt 0.777778 0.888889
vt 0.888889 0.888889
vt 1.000000 0.888889
vt 0.000000 1.000000
vt 0.111111 1.000000
vt 0.222222 1.000000
vt 0.333333 1.000000
vt 0.444444 1.000000
vt 0.555556 1.000000
vt 0.666667 1.000000
vt 0.777778 1.000000
vt 0.888889 1.000000
vt 1.000000 1.000000
vt 0.000000 0.000000
vt 0.111111 0.000000
vt 0.222222 0.000000
vt 0.333333 0.000000
vt 0.444444 0.000000
vt 0.555556 0.000000
vt 0.666667 0.000000
vt 0.777778 0.000000
vt 0.888889 0.000000
vt 1.000000 0.000000
vt 0.000000 0.111111
vt 0.111111 0.111111
vt 0.222222 0.111111
vt 0.333333 0.111111
vt 0.444444 0.111111
vt 0.555556 0.111111
vt 0.666667 0.111111
vt 0.777778 0.111111
vt 0.888889 0.111111
vt 1.000000 0.111111
vt 0.000000 0.222222
vt 0.111111 0.222222
vt 0.222222 0.222222
vt 0.333333 0.222222
vt 0.444444 0.222222
vt 0.555556 0.222222
vt 0.666667 0.222222
vt 0.777778 0.222222
vt 0.888889 0.222222
vt 1.000000 0.222222
vt 0.000000 0.333333
vt 0.111111 0.333333
vt 0.222222 0.333333
vt 0.333333 0.333333
vt 0.444444 0.333333
vt 0.555556 0.333333
vt 0.666667 0.333333
vt 0.777778 0.333333
vt 0.888889 0.333333
vt 1.000000 0.333333
vt 0.000000 0.444444
vt 0.111111 0.444444
vt 0.222222 0.444444
vt 0.333333 0.444444
vt 0.444444 0.444444
vt 0.555556 0.444444
vt 0.666667 0.444444
vt 0.777778 0.444444
vt 0.888889 0.444444
vt 1.000000 0.444444
vt 0.000000 0.555556
vt 0.111111 0.555556
vt 0.222222 0.555556
vt 0.333333 0.555556
vt 0.444444 0.555556
vt 0.555556 0.555556
vt 0.666667 0.555556
vt 0.777778 0.555556
vt 0.888889 0.555556
vt 1.000000 0.555556
vt 0.000000 0.666667
vt 0.111111 0.666667
vt 0.222222 0.666667
vt 0.333333 0.666667
vt 0.444444 0.666667
vt 0.555556 0.666667
vt 0.666667 0.666667
vt 0.777778 0.666667
vt 0.888889 0.666667
vt 1.000000 0.666667
vt 0.000000 0.777778
vt 0.111111 0.777778
vt 0.222222 0.777778
vt 0.333333 0.777778
vt 0.444444 0.777778
vt 0.555556 0.777778
vt 0.666667 0.777778
vt 0.777778 0.777778
vt 0.888889 0.777778
vt 1.000000 0.777778
vt 0.000000 0.888889
vt 0.111111 0.888889
vt 0.222222 0.888889
vt 0.333333 0.888889
vt 0.444444 0.888889
vt 0.555556 0.888889
vt 0.666667 0.888889
vt 0.777778 0.888889
vt 0.888889 0.888889
vt 1.000000 0.888889
vt 0.000000 1.000000
vt 0.111111 1.000000
vt 0.222222 1.000000
vt 0.333333 1.000000
vt 0.444444 1.000000
vt 0.555556 1.000000
vt 0.666667 1.000000
vt 0.777778 1.000000
vt 0.888889 1.000000
vt 1.000000 1.000000
vn 0.577350 -0.577350 -0.577350
vn 0.624695 -0.624695 -0.468521
vn 0.666667 -0.666667 -0.333333
vn 0.696311 -0.696311 -0.174078
vn 0.707107 -0.707107 0.000000
vn 0.707107 -0.707107 0.000000
vn 0.696311 -0.696311 0.174078
vn 0.666667 -0.666667 0.333333
vn 0.624695 -0.624695 0.468521
vn 0.577350 -0.577350 0.577350
vn 0.624695 -0.468521 -0.624695
vn 0.685994 -0.514496 -0.514496
vn 0.742781 -0.557086 -0.371391
vn 0.784465 -0.588348 -0.196116
vn 0.800000 -0.600000 0.000000
vn 0.800000 -0.600000 0.000000
vn 0.784465 -0.588348 0.196116
vn 0.742781 -0.557086 0.371391
vn 0.685994 -0.514496 0.514496
vn 0.624695 -0.468521 0.624695
vn 0.666667 -0.333333 -0.666667
vn 0.742781 -0.371391 -0.557086
vn 0.816497 -0.408248 -0.408248
vn 0.872872 -0.436436 -0.218218
vn 0.894427 -0.447214 0.000000
vn 0.894427 -0.447214 0.000000
vn 0.872872 -0.436436 0.218218
vn 0.816497 -0.408248 0.408248
vn 0.742781 -0.371391 0.557086
vn 0.666667 -0.333333 0.666667
vn 0.696311 -0.174078 -0.696311
vn 0.784465 -0.196116 -0.588348
vn 0.872872 -0.218218 -0.436436
vn 0.942809 -0.235702 -0.235702
vn 0.970143 -0.242536 0.000000
vn 0.970143 -0.242536 0.000000
vn 0.942809 -0.235702 0.235702
vn 0.872872 -0.218218 0.436436
vn 0.784465 -0.196116 0.588348
vn 0.696311 -0.174078 0.696311
vn 0.707107 0.000000 -0.707107
vn 0.800000 0.000000 -0.600000
vn 0.894427 0.000000 -0.447214
vn 0.970143 0.000000 -0.242536
vn 1.000000 0.000000 0.000000
vn 1.000000 0.000000 0.000000
vn 0.970143 0.000000 0.242536
vn 0.894427 0.000000 0.447214
vn 0.800000 0.000000 0.600000
vn 0.707107 0.000000 0.707107
vn 0.707107 0.000000 -0.707107
vn 0.800000 0.000000 -0.600000
vn 0.894427 0.000000 -0.447214
vn 0.970143 0.000000 -0.242536
vn 1.000000 0.000000 0.000000
vn 1.000000 0.000000 0.000000
vn 0.970143 0.000000 0.242536
vn 0.894427 0.000000 0.447214
vn 0.800000 0.000000 0.600000
vn 0.707107 0.000000 0.707107
vn 0.696311 0.174078 -0.696311
vn 0.784465 0.196116 -0.588348
vn 0.872872 0.218218 -0.436436
vn 0.942809 0.235702 -0.235702
vn 0.970143 0.242536 0.000000
vn 0.970143 0.242536 0.000000
vn 0.942809 0.235702 0.235702
vn 0.872872 0.218218 0.436436
vn 0.784465 0.196116 0.588348
vn 0.696311 0.174078 0.696311
vn 0.666667 0.333333 -0.666667
vn 0.742781 0.371391 -0.557086
vn 0.816497 0.408248 -0.408248
vn 0.872872 0.436436 -0.218218
vn 0.894427 0.447214 0.000000
vn 0.894427 0.447214 0.000000
vn 0.872872 0.436436 0.218218
vn 0.816497 0.408248 0.408248
vn 0.742781 0.371391 0.557086
vn 0.666667 0.333333 0.666667
vn 0.624695 0.468521 -0.624695
vn 0.685994 0.514496 -0.514496
vn 0.742781 0.557086 -0.371391
vn 0.784465 0.588348 -0.196116
vn 0.800000 0.600000 0.000000
vn 0.800000 0.600000 0.000000
vn 0.784465 0.588348 0.196116
vn 0.742781 0.557086 0.371391
vn 0.685994 0.514496 0.514496
vn 0.624695 0.468521 0.624695
vn 0.577350 0.577350 -0.577350
vn 0.624695 0.624695 -0.468521
vn 0.666667 0.666667 -0.333333
vn 0.696311 0.696311 -0.174078
vn 0.707107 0.707107 0.000000
vn 0.707107 0.707107 0.000000
vn 0.696311 0.696311 0.174078
vn 0.666667 0.666667 0.333333
vn 0.624695 0.624695 0.468521
vn 0.577350 0.577350 0.577350
vn -0.577350 -0.577350 0.577350
vn -0.624695 -0.624695 0.468521
vn -0.666667 -0.666667 0.333333
vn -0.696311 -0.696311 0.174078
vn -0.707107 -0.707107 0.000000
vn -0.707107 -0.707107 0.000000
vn -0.696311 -0.696311 -0.174078
vn -0.666667 -0.666667 -0.333333
vn -0.624695 -0.624695 -0.468521
vn -0.577350 -0.577350 -0.577350
vn -0.624695 -0.468521 0.624695
vn -0.685994 -0.514496 0.514496
vn -0.742781 -0.557086 0.371391
vn -0.784465 -0.588348 0.196116
vn -0.800000 -0.600000 0.000000
vn -0.800000 -0.600000 0.000000
vn -0.784465 -0.588348 -0.196116
vn -0.742781 -0.557086 -0.371391
vn -0.685994 -0.514496 -0.514496
vn -0.624695 -0.468521 -0.624695
vn -0.666667 -0.333333 0.666667
vn -0.742781 -0.371391 0.557086
vn -0.816497 -0.408248 0.408248
vn -0.872872 -0.436436 0.218218
vn -0.894427 -0.447214 0.000000
vn -0.894427 -0.447214 0.000000
vn -0.872872 -0.436436 -0.218218
vn -0.816497 -0.408248 -0.408248
vn -0.742781 -0.371391 -0.557086
vn -0.666667 -0.333333 -0.666667
vn -0.696311 -0.174078 0.696311
vn -0.784465 -0.196116 0.588348
vn -0.872872 -0.218218 0.436436
vn -0.942809 -0.235702 0.235702
vn -0.970143 -0.242536 0.000000
vn -0.970143 -0.242536 0.000000
vn -0.942809 -0.235702 -0.235702
vn -0.872872 -0.218218 -0.436436
vn -0.784465 -0.196116 -0.588348
vn -0.696311 -0.174078 -0.696311
vn -0.707107 0.000000 0.707107
vn -0.800000 0.000000 0.600000
vn -0.894427 0.000000 0.447214
vn -0.970143 0.000000 0.242536
vn -1.000000 0.000000 0.000000
vn -1.000000 0.000000 0.000000
vn -0.970143 0.000000 -0.242536
vn -0.894427 0.000000 -0.447214
vn -0.800000 0.000000 -0.600000
vn -0.707107 0.000000 -0.707107
vn -0.707107 0.000000 0.707107
vn -0.800000 0.000000 0.600000
vn -0.894427 0.000000 0.447214
vn -0.970143 0.000000 0.242536
vn -1.000000 0.000000 0.000000
vn -1.000000 0.000000 0.000000
vn -0.970143 0.000000 -0.242536
vn -0.894427 0.000000 -0.447214
vn -0.800000 0.000000 -0.600000
vn -0.707107 0.000000 -0.707107
vn -0.696311 0.174078 0.696311
vn -0.784465 0.196116 0.588348
vn -0.872872 0.218218 0.436436
vn -0.942809 0.235702 0.235702
vn -0.970143 0.242536 0.000000
vn -0.970143 0.242536 0.000000
vn -0.942809 0.235702 -0.235702
vn -0.872872 0.218218 -0.436436
vn -0.784465 0.196116 -0.588348
vn -0.696311 0.174078 -0.696311
vn -0.666667 0.333333 0.666667
vn -0.742781 0.371391 0.557086
vn -0.816497 0.408248 0.408248
vn -0.872872 0.436436 0.218218
vn -0.894427 0.447214 0.000000
vn -0.894427 0.447214 0.000000
vn -0.872872 0.436436 -0.218218
vn -0.816497 0.408248 -0.408248
vn -0.742781 0.371391 -0.557086
vn -0.666667 0.333333 -0.666667
vn -0.624695 0.468521 0.624695
vn -0.685994 0.514496 0.514496
vn -0.742781 0.557086 0.371391
vn -0.784465 0.588348 0.196116
vn -0.800000 0.600000 0.000000
vn -0.800000 0.600000 0.000000
vn -0.784465 0.588348 -0.196116
vn -0.742781 0.557086 -0.371391
vn -0.685994 0.514496 -0.514496
vn -0.624695 0.468521 -0.624695
vn -0.577350 0.577350 0.577350
vn -0.624695 0.624695 0.468521
vn -0.666667 0.666667 0.333333
vn -0.696311 0.696311 0.174078
vn -0.707107 0.707107 0.000000
vn -0.707107 0.707107 0.000000
vn -0.696311 0.696311 -0.174078
vn -0.666667 0.666667 -0.333333
vn -0.624695 0.624695 -0.468521
vn -0.577350 0.577350 -0.577350
vn -0.577350 0.577350 -0.577350
vn -0.468521 0.624695 -0.624695
vn -0.333333 0.666667 -0.666667
vn -0.174078 0.696311 -0.696311
vn 0.000000 0.707107 -0.707107
vn 0.000000 0.707107 -0.707107
vn 0.174078 0.696311 -0.696311
vn 0.333333 0.666667 -0.666667
vn 0.468521 0.624695 -0.624695
vn 0.577350 0.577350 -0.577350
vn -0.624695 0.624695 -0.468521
vn -0.514496 0.685994 -0.514496
vn -0.371391 0.742781 -0.557086
vn -0.196116 0.784465 -0.588348
vn 0.000000 0.800000 -0.600000
vn 0.000000 0.800000 -0.600000
vn 0.196116 0.784465 -0.588348
vn 0.371391 0.742781 -0.557086
vn 0.514496 0.685994 -0.514496
vn 0.624695 0.624695 -0.468521
vn -0.666667 0.666667 -0.333333
vn -0.557086 0.742781 -0.371391
vn -0.408248 0.816497 -0.408248
vn -0.218218 0.872872 -0.436436
vn 0.000000 0.894427 -0.447214
vn 0.000000 0.894427 -0.447214
vn 0.218218 0.872872 -0.436436
vn 0.408248 0.816497 -0.408248
vn 0.557086 0.742781 -0.371391
vn 0.666667 0.666667 -0.333333
vn -0.696311 0.696311 -0.174078
vn -0.588348 0.784465 -0.196116
vn -0.436436 0.872872 -0.218218
vn -0.235702 0.942809 -0.235702
vn 0.000000 0.970143 -0.242536
vn 0.000000 0.970143 -0.242536
vn 0.235702 0.942809 -0.235702
vn 0.436436 0.872872 -0.218218
vn 0.588348 0.784465 -0.196116
vn 0.696311 0.696311 -0.174078
vn -0.707107 0.707107 0.000000
vn -0.600000 0.800000 0.000000
vn -0.447214 0.894427 0.000000
vn -0.242536 0.970143 0.000000
vn 0.000000 1.000000 0.000000
vn 0.000000 1.000000 0.000000
vn 0.242536 0.970143 0.000000
vn 0.447214 0.894427 0.000000
vn 0.600000 0.800000 0.000000
vn 0.707107 0.707107 0.000000
vn -0.707107 0.707107 0.000000
vn -0.600000 0.800000 0.000000
vn -0.447214 0.894427 0.000000
vn -0.242536 0.970143 0.000000
vn 0.000000 1.000000 0.000000
vn 0.000000 1.000000 0.000000
vn 0.242536 0.970143 0.000000
vn 0.447214 0.894427 0.000000
vn 0.600000 0.800000 0.000000
vn 0.707107 0.707107 0.000000
vn -0.696311 0.696311 0.174078
vn -0.588348 0.784465 0.196116
vn -0.436436 0.872872 0.218218
vn -0.235702 0.942809 0.235702
vn 0.000000 0.970143 0.242536
vn 0.000000 0.970143 0.242536
vn 0.235702 0.942809 0.235702
vn 0.436436 0.872872 0.218218
vn 0.588348 0.784465 0.196116
vn 0.696311 0.696311 0.174078
vn -0.666667 0.666667 0.333333
vn -0.557086 0.742781 0.371391
vn -0.408248 0.816497 0.408248
vn -0.218218 0.872872 0.436436
vn 0.000000 0.894427 0.447214
vn 0.000000 0.894427 0.447214
vn 0.218218 0.872872 0.436436
vn 0.408248 0.816497 0.408248
vn 0.557086 0.742781 0.371391
vn 0.666667 0.666667 0.333333
vn -0.624695 0.624695 0.468521
vn -0.514496 0.685994 0.514496
vn -0.371391 0.742781 0.557086
vn -0.196116 0.784465 0.588348
vn 0.000000 0.800000 0.600000
vn 0.000000 0.800000 0.600000
vn 0.196116 0.784465 0.588348
vn 0.371391 0.742781 0.557086
vn 0.514496 0.685994 0.514496
vn 0.624695 0.624695 0.468521
vn -0.577350 0.577350 0.577350
vn -0.468521 0.624695 0.624695
vn -0.333333 0.666667 0.666667
vn -0.174078 0.696311 0.696311
vn 0.000000 0.707107 0.707107
vn 0.000000 0.707107 0.707107
vn 0.174078 0.696311 0.696311
vn 0.333333 0.666667 0.666667
vn 0.468521 0.624695 0.624695
vn 0.577350 0.577350 0.577350
vn 0.577350 -0.577350 -0.577350
vn 0.468521 -0.624695 -0.624695
vn 0.333333 -0.666667 -0.666667
vn 0.174078 -0.696311 -0.696311
vn 0.000000 -0.707107 -0.707107
vn 0.000000 -0.707107 -0.707107
vn -0.174078 -0.696311 -0.696311
vn -0.333333 -0.666667 -0.666667
vn -0.468521 -0.624695 -0.624695
vn -0.577350 -0.577350 -0.577350
vn 0.624695 -0.624695 -0.468521
vn 0.514496 -0.685994 -0.514496
vn 0.371391 -0.742781 -0.557086
vn 0.196116 -0.784465 -0.588348
vn 0.000000 -0.800000 -0.600000
vn 0.000000 -0.800000 -0.600000
vn -0.196116 -0.784465 -0.588348
vn -0.371391 -0.742781 -0.557086
vn -0.514496 -0.685994 -0.514496
vn -0.624695 -0.624695 -0.468521
vn 0.666667 -0.666667 -0.333333
vn 0.557086 -0.742781 -0.371391
vn 0.408248 -0.816497 -0.408248
vn 0.218218 -0.872872 -0.436436
vn 0.000000 -0.894427 -0.447214
vn 0.000000 -0.894427 -0.447214
vn -0.218218 -0.872872 -0.436436
vn -0.408248 -0.816497 -0.408248
vn -0.557086 -0.742781 -0.371391
vn -0.666667 -0.666667 -0.333333
vn 0.696311 -0.696311 -0.174078
vn 0.588348 -0.784465 -0.196116
vn 0.436436 -0.872872 -0.218218
vn 0.235702 -0.942809 -0.235702
vn 0.000000 -0.970143 -0.242536
vn 0.000000 -0.970143 -0.242536
vn -0.235702 -0.942809 -0.235702
vn -0.436436 -0.872872 -0.218218
vn -0.588348 -0.784465 -0.196116
vn -0.696311 -0.696311 -0.174078
vn 0.707107 -0.707107 0.000000
vn 0.600000 -0.800000 0.000000
vn 0.447214 -0.894427 0.000000
vn 0.242536 -0.970143 0.000000
vn 0.000000 -1.000000 0.000000
vn 0.000000 -1.000000 0.000000
vn -0.242536 -0.970143 0.000000
vn -0.447214 -0.894427 0.000000
vn -0.600000 -0.800000 0.000000
vn -0.707107 -0.707107 0.000000
vn 0.707107 -0.707107 0.000000
vn 0.600000 -0.800000 0.000000
vn 0.447214 -0.894427 0.000000
vn 0.242536 -0.970143 0.000000
vn 0.000000 -1.000000 0.000000
vn 0.000000 -1.000000 0.000000
vn -0.242536 -0.970143 0.000000
vn -0.447214 -0.894427 0.000000
vn -0.600000 -0.800000 0.000000
vn -0.707107 -0.707107 0.000000
vn 0.696311 -0.696311 0.174078
vn 0.588348 -0.784465 0.196116
vn 0.436436 -0.872872 0.218218
vn 0.235702 -0.942809 0.235702
vn 0.000000 -0.970143 0.242536
vn 0.000000 -0.970143 0.242536
vn -0.235702 -0.942809 0.235702
vn -0.436436 -0.872872 0.218218
vn -0.588348 -0.784465 0.196116
vn -0.696311 -0.696311 0.174078
vn 0.666667 -0.666667 0.333333
vn 0.557086 -0.742781 0.371391
vn 0.408248 -0.816497 0.408248
vn 0.218218 -0.872872 0.436436
vn 0.000000 -0.894427 0.447214
vn 0.000000 -0.894427 0.447214
vn -0.218218 -0.872872 0.436436
vn -0.408248 -0.816497 0.408248
vn -0.557086 -0.742781 0.371391
vn -0.666667 -0.666667 0.333333
vn 0.624695 -0.624695 0.468521
vn 0.514496 -0.685994 0.514496
vn 0.371391 -0.742781 0.557086
vn 0.196116 -0.784465 0.588348
vn 0.000000 -0.800000 0.600000
vn 0.000000 -0.800000 0.600000
vn -0.196116 -0.784465 0.588348
vn -0.371391 -0.742781 0.557086
vn -0.514496 -0.685994 0.514496
vn -0.624695 -0.624695 0.468521
vn 0.577350 -0.577350 0.577350
vn 0.468521 -0.624695 0.624695
vn 0.333333 -0.666667 0.666667
vn 0.174078 -0.696311 0.696311
vn 0.000000 -0.707107 0.707107
vn 0.000000 -0.707107 0.707107
vn -0.174078 -0.696311 0.696311
vn -0.333333 -0.666667 0.666667
vn -0.468521 -0.624695 0.624695
vn -0.577350 -0.577350 0.577350
vn -0.577350 -0.577350 0.577350
vn -0.624695 -0.468521 0.624695
vn -0.666667 -0.333333 0.666667
vn -0.696311 -0.174078 0.696311
vn -0.707107 0.000000 0.707107
vn -0.707107 0.000000 0.707107
vn -0.696311 0.174078 0.696311
vn -0.666667 0.333333 0.666667
vn -0.624695 0.468521 0.624695
vn -0.577350 0.577350 0.577350
vn -0.468521 -0.624695 0.624695
vn -0.514496 -0.514496 0.685994
vn -0.557086 -0.371391 0.742781
vn -0.588348 -0.196116 0.784465
vn -0.600000 0.000000 0.800000
vn -0.600000 0.000000 0.800000
vn -0.588348 0.196116 0.784465
vn -0.557086 0.371391 0.742781
vn -0.514496 0.514496 0.685994
vn -0.468521 0.624695 0.624695
vn -0.333333 -0.666667 0.666667
vn -0.371391 -0.557086 0.742781
vn -0.408248 -0.408248 0.816497
vn -0.436436 -0.218218 0.872872
vn -0.447214 0.000000 0.894427
vn -0.447214 0.000000 0.894427
vn -0.436436 0.218218 0.872872
vn -0.408248 0.408248 0.816497
vn -0.371391 0.557086 0.742781
vn -0.333333 0.666667 0.666667
vn -0.174078 -0.696311 0.696311
vn -0.196116 -0.588348 0.784465
vn -0.218218 -0.436436 0.872872
vn -0.235702 -0.235702 0.942809
vn -0.242536 0.000000 0.970143
vn -0.242536 0.000000 0.970143
vn -0.235702 0.235702 0.942809
vn -0.218218 0.436436 0.872872
vn -0.196116 0.588348 0.784465
vn -0.174078 0.696311 0.696311
vn 0.000000 -0.707107 0.707107
vn 0.000000 -0.600000 0.800000
vn 0.000000 -0.447214 0.894427
vn 0.000000 -0.242536 0.970143
vn 0.000000 0.000000 1.000000
vn 0.000000 0.000000 1.000000
vn 0.000000 0.242536 0.970143
vn 0.000000 0.447214 0.894427
vn 0.000000 0.600000 0.800000
vn 0.000000 0.707107 0.707107
vn 0.000000 -0.707107 0.707107
vn 0.000000 -0.600000 0.800000
vn 0.000000 -0.447214 0.894427
vn 0.000000 -0.242536 0.970143
vn 0.000000 0.000000 1.000000
vn 0.000000 0.000000 1.000000
vn 0.000000 0.242536 0.970143
vn 0.000000 0.447214 0.894427
vn 0.000000 0.600000 0.800000
vn 0.000000 0.707107 0.707107
vn 0.174078 -0.696311 0.696311
vn 0.196116 -0.588348 0.784465
vn 0.218218 -0.436436 0.872872
vn 0.235702 -0.235702 0.942809
vn 0.242536 0.000000 0.970143
vn 0.242536 0.000000 0.970143
vn 0.235702 0.235702 0.942809
vn 0.218218 0.436436 0.872872
vn 0.196116 0.588348 0.784465
vn 0.174078 0.696311 0.696311
vn 0.333333 -0.666667 0.666667
vn 0.371391 -0.557086 0.742781
vn 0.408248 -0.408248 0.816497
vn 0.436436 -0.218218 0.872872
vn 0.447214 0.000000 0.894427
vn 0.447214 0.000000 0.894427
vn 0.436436 0.218218 0.872872
vn 0.408248 0.408248 0.816497
vn 0.371391 0.557086 0.742781
vn 0.333333 0.666667 0.666667
vn 0.468521 -0.624695 0.624695
vn 0.514496 -0.514496 0.685994
vn 0.557086 -0.371391 0.742781
vn 0.588348 -0.196116 0.784465
vn 0.600000 0.000000 0.800000
vn 0.600000 0.000000 0.800000
vn 0.588348 0.196116 0.784465
vn 0.557086 0.371391 0.742781
vn 0.514496 0.514496 0.685994
vn 0.468521 0.624695 0.624695
vn 0.577350 -0.577350 0.577350
vn 0.624695 -0.468521 0.624695
vn 0.666667 -0.333333 0.666667
vn 0.696311 -0.174078 0.696311
vn 0.707107 0.000000 0.707107
vn 0.707107 0.000000 0.707107
vn 0.696311 0.174078 0.696311
vn 0.666667 0.333333 0.666667
vn 0.624695 0.468521 0.624695
vn 0.577350 0.577350 0.577350
vn -0.577350 0.577350 -0.577350
vn -0.624695 0.468521 -0.624695
vn -0.666667 0.333333 -0.666667
vn -0.696311 0.174078 -0.696311
vn -0.707107 0.000000 -0.707107
vn -0.707107 0.000000 -0.707107
vn -0.696311 -0.174078 -0.696311
vn -0.666667 -0.333333 -0.666667
vn -0.624695 -0.468521 -0.624695
vn -0.577350 -0.577350 -0.577350
vn -0.468521 0.624695 -0.624695
vn -0.514496 0.514496 -0.685994
vn -0.557086 0.371391 -0.742781
vn -0.588348 0.196116 -0.784465
vn -0.600000 0.000000 -0.800000
vn -0.600000 0.000000 -0.800000
vn -0.588348 -0.196116 -0.784465
vn -0.557086 -0.371391 -0.742781
vn -0.514496 -0.514496 -0.685994
vn -0.468521 -0.624695 -0.624695
vn -0.333333 0.666667 -0.666667
vn -0.371391 0.557086 -0.742781
vn -0.408248 0.408248 -0.816497
vn -0.436436 0.218218 -0.872872
vn -0.447214 0.000000 -0.894427
vn -0.447214 0.000000 -0.894427
vn -0.436436 -0.218218 -0.872872
vn -0.408248 -0.408248 -0.816497
vn -0.371391 -0.557086 -0.742781
vn -0.333333 -0.666667 -0.666667
vn -0.174078 0.696311 -0.696311
vn -0.196116 0.588348 -0.784465
vn -0.218218 0.436436 -0.872872
vn -0.235702 0.235702 -0.942809
vn -0.242536 0.000000 -0.970143
vn -0.242536 0.000000 -0.970143
vn -0.235702 -0.235702 -0.942809
vn -0.218218 -0.436436 -0.872872
vn -0.196116 -0.588348 -0.784465
vn -0.174078 -0.696311 -0.696311
vn 0.000000 0.707107 -0.707107
vn 0.000000 0.600000 -0.800000
vn 0.000000 0.447214 -0.894427
vn 0.000000 0.242536 -0.970143
vn 0.000000 0.000000 -1.000000
vn 0.000000 0.000000 -1.000000
vn 0.000000 -0.242536 -0.970143
vn 0.000000 -0.447214 -0.894427
vn 0.000000 -0.600000 -0.800000
vn 0.000000 -0.707107 -0.707107
vn 0.000000 0.707107 -0.707107
vn 0.000000 0.600000 -0.800000
vn 0.000000 0.447214 -0.894427
vn 0.000000 0.242536 -0.970143
vn 0.000000 0.000000 -1.000000
vn 0.000000 0.000000 -1.000000
vn 0.000000 -0.242536 -0.970143
vn 0.000000 -0.447214 -0.894427
vn 0.000000 -0.600000 -0.800000
vn 0.000000 -0.707107 -0.707107
vn 0.174078 0.696311 -0.696311
vn 0.196116 0.588348 -0.784465
vn 0.218218 0.436436 -0.872872
vn 0.235702 0.235702 -0.942809
vn 0.242536 0.000000 -0.970143
vn 0.242536 0.000000 -0.970143
vn 0.235702 -0.235702 -0.942809
vn 0.218218 -0.436436 -0.872872
vn 0.196116 -0.588348 -0.784465
vn 0.174078 -0.696311 -0.696311
vn 0.333333 0.666667 -0.666667
vn 0.371391 0.557086 -0.742781
vn 0.408248 0.408248 -0.816497
vn 0.436436 0.218218 -0.872872
vn 0.447214 0.000000 -0.894427
vn 0.447214 0.000000 -0.894427
vn 0.436436 -0.218218 -0.872872
vn 0.408248 -0.408248 -0.816497
vn 0.371391 -0.557086 -0.742781
vn 0.333333 -0.666667 -0.666667
vn 0.468521 0.624695 -0.624695
vn 0.514496 0.514496 -0.685994
vn 0.557086 0.371391 -0.742781
vn 0.588348 0.196116 -0.784465
vn 0.600000 0.000000 -0.800000
vn 0.600000 0.000000 -0.800000
vn 0.588348 -0.196116 -0.784465
vn 0.557086 -0.371391 -0.742781
vn 0.514496 -0.514496 -0.685994
vn 0.468521 -0.624695 -0.624695
vn 0.577350 0.577350 -0.577350
vn 0.624695 0.468521 -0.624695
vn 0.666667 0.333333 -0.666667
vn 0.696311 0.174078 -0.696311
vn 0.707107 0.000000 -0.707107
vn 0.707107 0.000000 -0.707107
vn 0.696311 -0.174078 -0.696311
vn 0.666667 -0.333333 -0.666667
vn 0.624695 -0.468521 -0.624695
vn 0.577350 -0.577350 -0.577350
usemtl M_Rounded_Beveled_Cube
f 1/1/1 11/11/11 2/2/2
f 2/2/2 11/11/11 12/12/12
f 2/2/2 12/12/12 3/3/3
f 3/3/3 12/12/12 13/13/13
f 3/3/3 13/13/13 4/4/4
f 4/4/4 13/13/13 14/14/14
f 4/4/4 14/14/14 5/5/5
f 5/5/5 14/14/14 15/15/15
f 5/5/5 15/15/15 6/6/6
f 6/6/6 15/15/15 16/16/16
f 6/6/6 16/16/16 7/7/7
f 7/7/7 16/16/16 17/17/17
f 7/7/7 17/17/17 8/8/8
f 8/8/8 17/17/17 18/18/18
f 8/8/8 18/18/18 9/9/9
f 9/9/9 18/18/18 19/19/19
f 9/9/9 19/19/19 10/10/10
f 10/10/10 19/19/19 20/20/20
f 11/11/11 21/21/21 12/12/12
f 12/12/12 21/21/21 22/22/22
f 12/12/12 22/22/22 13/13/13
f 13/13/13 22/22/22 23/23/23
f 13/13/13 23/23/23 14/14/14
f 14/14/14 23/23/23 24/24/24
f 14/14/14 24/24/24 15/15/15
f 15/15/15 24/24/24 25/25/25
f 15/15/15 25/25/25 16/16/16
f 16/16/16 25/25/25 26/26/26
f 16/16/16 26/26/26 17/17/17
f 17/17/17 26/26/26 27/27/27
f 17/17/17 27/27/27 18/18/18
f 18/18/18 27/27/27 28/28/28
f 18/18/18 28/28/28 19/19/19
f 19/19/19 28/28/28 29/29/29
f 19/19/19 29/29/29 20/20/20
f 20/20/20 29/29/29 30/30/30
f 21/21/21 31/31/31 22/22/22
f 22/22/22 31/31/31 32/32/32
f 22/22/22 32/32/32 23/23/23
f 23/23/23 32/32/32 33/33/33
f 23/23/23 33/33/33 24/24/24
f 24/24/24 33/33/33 34/34/34
f 24/24/24 34/34/34 25/25/25
f 25/25/25 34/34/34 35/35/35
f 25/25/25 35/35/35 26/26/26
f 26/26/26 35/35/35 36/36/36
f 26/26/26 36/36/36 27/27/27
f 27/27/27 36/36/36 37/37/37
f 27/27/27 37/37/37 28/28/28
f 28/28/28 37/37/37 38/38/38
f 28/28/28 38/38/38 29/29/29
f 29/29/29 38/38/38 39/39/39
f 29/29/29 39/39/39 30/30/30
f 30/30/30 39/39/39 40/40/40
f 31/31/31 41/41/41 32/32/32
f 32/32/32 41/41/41 42/42/42
f 32/32/32 42/42/42 33/33/33
f 33/33/33 42/42/42 43/43/43
f 33/33/33 43/43/43 34/34/34
f 34/34/34 43/43/43 44/44/44
f 34/34/34 44/44/44 35/35/35
f 35/35/35 44/44/44 45/45/45
f 35/35/35 45/45/45 36/36/36
f 36/36/36 45/45/45 46/46/46
f 36/36/36 46/46/46 37/37/37
f 37/37/37 46/46/46 47/47/47
f 37/37/37 47/47/47 38/38/38
f 38/38/38 47/47/47 48/48/48
f 38/38/38 48/48/48 39/39/39
f 39/39/39 48/48/48 49/49/49
f 39/39/39 49/49/49 40/40/40
f 40/40/40 49/49/49 50/50/50
f 41/41/41 51/51/51 42/42/42
f 42/42/42 51/51/51 52/52/52
f 42/42/42 52/52/52 43/43/43
f 43/43/43 52/52/52 53/53/53
f 43/43/43 53/53/53 44/44/44
f 44/44/44 53/53/53 54/54/54
f 44/44/44 54/54/54 45/45/45
f 45/45/45 54/54/54 55/55/55
f 45/45/45 55/55/55 46/46/46
f 46/46/46 55/55/55 56/56/56
f 46/46/46 56/56/56 47/47/47
f 47/47/47 56/56/56 57/57/57
f 47/47/47 57/57/57 48/48/48
f 48/48/48 57/57/57 58/58/58
f 48/48/48 58/58/58 49/49/49
f 49/49/49 58/58/58 59/59/59
f 49/49/49 59/59/59 50/50/50
f 50/50/50 59/59/59 60/60/60
f 51/51/51 61/61/61 52/52/52
f 52/52/52 61/61/61 62/62/62
f 52/52/52 62/62/62 53/53/53
f 53/53/53 62/62/62 63/63/63
f 53/53/53 63/63/63 54/54/54
f 54/54/54 63/63/63 64/64/64
f 54/54/54 64/64/64 55/55/55
f 55/55/55 64/64/64 65/65/65
f 55/55/55 65/65/65 56/56/56
f 56/56/56 65/65/65 66/66/66
f 56/56/56 66/66/66 57/57/57
f 57/57/57 66/66/66 67/67/67
f 57/57/57 67/67/67 58/58/58
f 58/58/58 67/67/67 68/68/68
f 58/58/58 68/68/68 59/59/59
f 59/59/59 68/68/68 69/69/69
f 59/59/59 69/69/69 60/60/60
f 60/60/60 69/69/69 70/70/70
f 61/61/61 71/71/71 62/62/62
f 62/62/62 71/71/71 72/72/72
f 62/62/62 72/72/72 63/63/63
f 63/63/63 72/72/72 73/73/73
f 63/63/63 73/73/73 64/64/64
f 64/64/64 73/73/73 74/74/74
f 64/64/64 74/74/74 65/65/65
f 65/65/65 74/74/74 75/75/75
f 65/65/65 75/75/75 66/66/66
f 66/66/66 75/75/75 76/76/76
f 66/66/66 76/76/76 67/67/67
f 67/67/67 76/76/76 77/77/77
f 67/67/67 77/77/77 68/68/68
f 68/68/68 77/77/77 78/78/78
f 68/68/68 78/78/78 69/69/69
f 69/69/69 78/78/78 79/79/79
f 69/69/69 79/79/79 70/70/70
f 70/70/70 79/79/79 80/80/80
f 71/71/71 81/81/81 72/72/72
f 72/72/72 81/81/81 82/82/82
f 72/72/72 82/82/82 73/73/73
f 73/73/73 82/82/82 83/83/83
f 73/73/73 83/83/83 74/74/74
f 74/74/74 83/83/83 84/84/84
f 74/74/74 84/84/84 75/75/75
f 75/75/75 84/84/84 85/85/85
f 75/75/75 85/85/85 76/76/76
f 76/76/76 85/85/85 86/86/86
f 76/76/76 86/86/86 77/77/77
f 77/77/77 86/86/86 87/87/87
f 77/77/77 87/87/87 78/78/78
f 78/78/78 87/87/87 88/88/88
f 78/78/78 88/88/88 79/79/79
f 79/79/79 88/88/88 89/89/89
f 79/79/79 89/89/89 80/80/80
f 80/80/80 89/89/89 90/90/90
f 81/81/81 91/91/91 82/82/82
f 82/82/82 91/91/91 92/92/92
f 82/82/82 92/92/92 83/83/83
f 83/83/83 92/92/92 93/93/93
f 83/83/83 93/93/93 84/84/84
f 84/84/84 93/93/93 94/94/94
f 84/84/84 94/94/94 85/85/85
f 85/85/85 94/94/94 95/95/95
f 85/85/85 95/95/95 86/86/86
f 86/86/86 95/95/95 96/96/96
f 86/86/86 96/96/96 87/87/87
f 87/87/87 96/96/96 97/97/97
f 87/87/87 97/97/97 88/88/88
f 88/88/88 97/97/97 98/98/98
f 88/88/88 98/98/98 89/89/89
f 89/89/89 98/98/98 99/99/99
f 89/89/89 99/99/99 90/90/90
f 90/90/90 99/99/99 100/100/100
f 101/101/101 111/111/111 102/102/102
f 102/102/102 111/111/111 112/112/112
f 102/102/102 112/112/112 103/103/103
f 103/103/103 112/112/112 113/113/113
f 103/103/103 113/113/113 104/104/104
f 104/104/104 113/113/113 114/114/114
f 104/104/104 114/114/114 105/105/105
f 105/105/105 114/114/114 115/115/115
f 105/105/105 115/115/115 106/106/106
f 106/106/106 115/115/115 116/116/116
f 106/106/106 116/116/116 107/107/107
f 107/107/107 116/116/116 117/117/117
f 107/107/107 117/117/117 108/108/108
f 108/108/108 117/117/117 118/118/118
f 108/108/108 118/118/118 109/109/109
f 109/109/109 118/118/118 119/119/119
f 109/109/109 119/119/119 110/110/110
f 110/110/110 119/119/119 120/120/120
f 111/111/111 121/121/121 112/112/112
f 112/112/112 121/121/121 122/122/122
f 112/112/112 122/122/122 113/113/113
f 113/113/113 122/122/122 123/123/123
f 113/113/113 123/123/123 114/114/114
f 114/114/114 123/123/123 124/124/124
f 114/114/114 124/124/124 115/115/115
f 115/115/115 124/124/124 125/125/125
f 115/115/115 125/125/125 116/116/116
f 116/116/116 125/125/125 126/126/126
f 116/116/116 126/126/126 117/117/117
f 117/117/117 126/126/126 127/127/127
f 117/117/117 127/127/127 118/118/118
f 118/118/118 127/127/127 128/128/128
f 118/118/118 128/128/128 119/119/119
f 119/119/119 128/128/128 129/129/129
f 119/119/119 129/129/129 120/120/120
f 120/120/120 129/129/129 130/130/130
f 121/121/121 131/131/131 122/122/122
f 122/122/122 131/131/131 132/132/132
f 122/122/122 132/132/132 123/123/123
f 123/123/123 132/132/132 133/133/133
f 123/123/123 133/133/133 124/124/124
f 124/124/124 133/133/133 134/134/134
f 124/124/124 134/134/134 125/125/125
f 125/125/125 134/134/134 135/135/135
f 125/125/125 135/135/135 126/126/126
f 126/126/126 135/135/135 136/136/136
f 126/126/126 136/136/136 127/127/127
f 127/127/127 136/136/136 137/137/137
f 127/127/127 137/137/137 128/128/128
f 128/128/128 137/137/137 138/138/138
f 128/128/128 138/138/138 129/129/129
f 129/129/129 138/138/138 139/139/139
f 129/129/129 139/139/139 130/130/130
f 130/130/130 139/139/139 140/140/140
f 131/131/131 141/141/141 132/132/132
f 132/132/132 141/141/141 142/142/142
f 132/132/132 142/142/142 133/133/133
f 133/133/133 142/142/142 143/143/143
f 133/133/133 143/143/143 134/134/134
f 134/134/134 143/143/143 144/144/144
f 134/134/134 144/144/144 135/135/135
f 135/135/135 144/144/144 145/145/145
f 135/135/135 145/145/145 136/136/136
f 136/136/136 145/145/145 146/146/146
f 136/136/136 146/146/146 137/137/137
f 137/137/137 146/146/146 147/147/147
f 137/137/137 147/147/147 138/138/138
f 138/138/138 147/147/147 148/148/148
f 138/138/138 148/148/148 139/139/139
f 139/139/139 148/148/148 149/149/149
f 139/139/139 149/149/149 140/140/140
f 140/140/140 149/149/149 150/150/150
f 141/141/141 151/151/151 142/142/142
f 142/142/142 151/151/151 152/152/152
f 142/142/142 152/152/152 143/143/143
f 143/143/143 152/152/152 153/153/153
f 143/143/143 153/153/153 144/144/144
f 144/144/144 153/153/153 154/154/154
f 144/144/144 154/154/154 145/145/145
f 145/145/145 154/154/154 155/155/155
f 145/145/145 155/155/155 146/146/146
f 146/146/146 155/155/155 156/156/156
f 146/146/146 156/156/156 147/147/147
f 147/147/147 156/156/156 157/157/157
f 147/147/147 157/157/157 148/148/148
f 148/148/148 157/157/157 158/158/158
f 148/148/148 158/158/158 149/149/149
f 149/149/149 158/158/158 159/159/159
f 149/149/149 159/159/159 150/150/150
f 150/150/150 159/159/159 160/160/160
f 151/151/151 161/161/161 152/152/152
f 152/152/152 161/161/161 162/162/162
f 152/152/152 162/162/162 153/153/153
f 153/153/153 162/162/162 163/163/163
f 153/153/153 163/163/163 154/154/154
f 154/154/154 163/163/163 164/164/164
f 154/154/154 164/164/164 155/155/155
f 155/155/155 164/164/164 165/165/165
f 155/155/155 165/165/165 156/156/156
f 156/156/156 165/165/165 166/166/166
f 156/156/156 166/166/166 157/157/157
f 157/157/157 166/166/166 167/167/167
f 157/157/157 167/167/167 158/158/158
f 158/158/158 167/167/167 168/168/168
f 158/158/158 168/168/168 159/159/159
f 159/159/159 168/168/168 169/169/169
f 159/159/159 169/169/169 160/160/160
f 160/160/160 169/169/169 170/170/170
f 161/161/161 171/171/171 162/162/162
f 162/162/162 171/171/171 172/172/172
f 162/162/162 172/172/172 163/163/163
f 163/163/163 172/172/172 173/173/173
f 163/163/163 173/173/173 164/164/164
f 164/164/164 173/173/173 174/174/174
f 164/164/164 174/174/174 165/165/165
f 165/165/165 174/174/174 175/175/175
f 165/165/165 175/175/175 166/166/166
f 166/166/166 175/175/175 176/176/176
f 166/166/166 176/176/176 167/167/167
f 167/167/167 176/176/176 177/177/177
f 167/167/167 177/177/177 168/168/168
f 168/168/168 177/177/177 178/178/178
f 168/168/168 178/178/178 169/169/169
f 169/169/169 178/178/178 179/179/179
f 169/169/169 179/179/179 170/170/170
f 170/170/170 179/179/179 180/180/180
f 171/171/171 181/181/181 172/172/172
f 172/172/172 181/181/181 182/182/182
f 172/172/172 182/182/182 173/173/173
f 173/173/173 182/182/182 183/183/183
f 173/173/173 183/183/183 174/174/174
f 174/174/174 183/183/183 184/184/184
f 174/174/174 184/184/184 175/175/175
f 175/175/175 184/184/184 185/185/185
f 175/175/175 185/185/185 176/176/176
f 176/176/176 185/185/185 186/186/186
f 176/176/176 186/186/186 177/177/177
f 177/177/177 186/186/186 187/187/187
f 177/177/177 187/187/187 178/178/178
f 178/178/178 187/187/187 188/188/188
f 178/178/178 188/188/188 179/179/179
f 179/179/179 188/188/188 189/189/189
f 179/179/179 189/189/189 180/180/180
f 180/180/180 189/189/189 190/190/190
f 181/181/181 191/191/191 182/182/182
f 182/182/182 191/191/191 192/192/192
f 182/182/182 192/192/192 183/183/183
f 183/183/183 192/192/192 193/193/193
f 183/183/183 193/193/193 184/184/184
f 184/184/184 193/193/193 194/194/194
f 184/184/184 194/194/194 185/185/185
f 185/185/185 194/194/194 195/195/195
f 185/185/185 195/195/195 186/186/186
f 186/186/186 195/195/195 196/196/196
f 186/186/186 196/196/196 187/187/187
f 187/187/187 196/196/196 197/197/197
f 187/187/187 197/197/197 188/188/188
f 188/188/188 197/197/197 198/198/198
f 188/188/188 198/198/198 189/189/189
f 189/189/189 198/198/198 199/199/199
f 189/189/189 199/199/199 190/190/190
f 190/190/190 199/199/199 200/200/200
f 201/201/201 211/211/211 202/202/202
f 202/202/202 211/211/211 212/212/212
f 202/202/202 212/212/212 203/203/203
f 203/203/203 212/212/212 213/213/213
f 203/203/203 213/213/213 204/204/204
f 204/204/204 213/213/213 214/214/214
f 204/204/204 214/214/214 205/205/205
f 205/205/205 214/214/214 215/215/215
f 205/205/205 215/215/215 206/206/206
f 206/206/206 215/215/215 216/216/216
f 206/206/206 216/216/216 207/207/207
f 207/207/207 216/216/216 217/217/217
f 207/207/207 217/217/217 208/208/208
f 208/208/208 217/217/217 218/218/218
f 208/208/208 218/218/218 209/209/209
f 209/209/209 218/218/218 219/219/219
f 209/209/209 219/219/219 210/210/210
f 210/210/210 219/219/219 220/220/220
f 211/211/211 221/221/221 212/212/212
f 212/212/212 221/221/221 222/222/222
f 212/212/212 222/222/222 213/213/213
f 213/213/213 222/222/222 223/223/223
f 213/213/213 223/223/223 214/214/214
f 214/214/214 223/223/223 224/224/224
f 214/214/214 224/224/224 215/215/215
f 215/215/215 224/224/224 225/225/225
f 215/215/215 225/225/225 216/216/216
f 216/216/216 225/225/225 226/226/226
f 216/216/216 226/226/226 217/217/217
f 217/217/217 226/226/226 227/227/227
f 217/217/217 227/227/227 218/218/218
f 218/218/218 227/227/227 228/228/228
f 218/218/218 228/228/228 219/219/219
f 219/219/219 228/228/228 229/229/229
f 219/219/219 229/229/229 220/220/220
f 220/220/220 229/229/229 230/230/230
f 221/221/221 231/231/231 222/222/222
f 222/222/222 231/231/231 232/232/232
f 222/222/222 232/232/232 223/223/223
f 223/223/223 232/232/232 233/233/233
f 223/223/223 233/233/233 224/224/224
f 224/224/224 233/233/233 234/234/234
f 224/224/224 234/234/234 225/225/225
f 225/225/225 234/234/234 235/235/235
f 225/225/225 235/235/235 226/226/226
f 226/226/226 235/235/235 236/236/236
f 226/226/226 236/236/236 227/227/227
f 227/227/227 236/236/236 237/237/237
f 227/227/227 237/237/237 228/228/228
f 228/228/228 237/237/237 238/238/238
f 228/228/228 238/238/238 229/229/229
f 229/229/229 238/238/238 239/239/239
f 229/229/229 239/239/239 230/230/230
f 230/230/230 239/239/239 240/240/240
f 231/231/231 241/241/241 232/232/232
f 232/232/232 241/241/241 242/242/242
f 232/232/232 242/242/242 233/233/233
f 233/233/233 242/242/242 243/243/243
f 233/233/233 243/243/243 234/234/234
f 234/234/234 243/243/243 244/244/244
f 234/234/234 244/244/244 235/235/235
f 235/235/235 244/244/244 245/245/245
f 235/235/235 245/245/245 236/236/236
f 236/236/236 245/245/245 246/246/246
f 236/236/236 246/246/246 237/237/237
f 237/237/237 246/246/246 247/247/247
f 237/237/237 247/247/247 238/238/238
f 238/238/238 247/247/247 248/248/248
f 238/238/238 248/248/248 239/239/239
f 239/239/239 248/248/248 249/249/249
f 239/239/239 249/249/249 240/240/240
f 240/240/240 249/249/249 250/250/250
f 241/241/241 251/251/251 242/242/242
f 242/242/242 251/251/251 252/252/252
f 242/242/242 252/252/252 243/243/243
f 243/243/243 252/252/252 253/253/253
f 243/243/243 253/253/253 244/244/244
f 244/244/244 253/253/253 254/254/254
f 244/244/244 254/254/254 245/245/245
f 245/245/245 254/254/254 255/255/255
f 245/245/245 255/255/255 246/246/246
f 246/246/246 255/255/255 256/256/256
f 246/246/246 256/256/256 247/247/247
f 247/247/247 256/256/256 257/257/257
f 247/247/247 257/257/257 248/248/248
f 248/248/248 257/257/257 258/258/258
f 248/248/248 258/258/258 249/249/249
f 249/249/249 258/258/258 259/259/259
f 249/249/249 259/259/259 250/250/250
f 250/250/250 259/259/259 260/260/260
f 251/251/251 261/261/261 252/252/252
f 252/252/252 261/261/261 262/262/262
f 252/252/252 262/262/262 253/253/253
f 253/253/253 262/262/262 263/263/263
f 253/253/253 263/263/263 254/254/254
f 254/254/254 263/263/263 264/264/264
f 254/254/254 264/264/264 255/255/255
f 255/255/255 264/264/264 265/265/265
f 255/255/255 265/265/265 256/256/256
f 256/256/256 265/265/265 266/266/266
f 256/256/256 266/266/266 257/257/257
f 257/257/257 266/266/266 267/267/267
f 257/257/257 267/267/267 258/258/258
f 258/258/258 267/267/267 268/268/268
f 258/258/258 268/268/268 259/259/259
f 259/259/259 268/268/268 269/269/269
f 259/259/259 269/269/269 260/260/260
f 260/260/260 269/269/269 270/270/270
f 261/261/261 271/271/271 262/262/262
f 262/262/262 271/271/271 272/272/272
f 262/262/262 272/272/272 263/263/263
f 263/263/263 272/272/272 273/273/273
f 263/263/263 273/273/273 264/264/264
f 264/264/264 273/273/273 274/274/274
f 264/264/264 274/274/274 265/265/265
f 265/265/265 274/274/274 275/275/275
f 265/265/265 275/275/275 266/266/266
f 266/266/266 275/275/275 276/276/276
f 266/266/266 276/276/276 267/267/267
f 267/267/267 276/276/276 277/277/277
f 267/267/267 277/277/277 268/268/268
f 268/268/268 277/277/277 278/278/278
f 268/268/268 278/278/278 269/269/269
f 269/269/269 278/278/278 279/279/279
f 269/269/269 279/279/279 270/270/270
f 270/270/270 279/279/279 280/280/280
f 271/271/271 281/281/281 272/272/272
f 272/272/272 281/281/281 282/282/282
f 272/272/272 282/282/282 273/273/273
f 273/273/273 282/282/282 283/283/283
f 273/273/273 283/283/283 274/274/274
f 274/274/274 283/283/283 284/284/284
f 274/274/274 284/284/284 275/275/275
f 275/275/275 284/284/284 285/285/285
f 275/275/275 285/285/285 276/276/276
f 276/276/276 285/285/285 286/286/286
f 276/276/276 286/286/286 277/277/277
f 277/277/277 286/286/286 287/287/287
f 277/277/277 287/287/287 278/278/278
f 278/278/278 287/287/287 288/288/288
f 278/278/278 288/288/288 279/279/279
f 279/279/279 288/288/288 289/289/289
f 279/279/279 289/289/289 280/280/280
f 280/280/280 289/289/289 290/290/290
f 281/281/281 291/291/291 282/282/282
f 282/282/282 291/291/291 292/292/292
f 282/282/282 292/292/292 283/283/283
f 283/283/283 292/292/292 293/293/293
f 283/283/283 293/293/293 284/284/284
f 284/284/284 293/293/293 294/294/294
f 284/284/284 294/294/294 285/285/285
f 285/285/285 294/294/294 295/295/295
f 285/285/285 295/295/295 286/286/286
f 286/286/286 295/295/295 296/296/296
f 286/286/286 296/296/296 287/287/287
f 287/287/287 296/296/296 297/297/297
f 287/287/287 297/297/297 288/288/288
f 288/288/288 297/297/297 298/298/298
f 288/288/288 298/298/298 289/289/289
f 289/289/289 298/298/298 299/299/299
f 289/289/289 299/299/299 290/290/290
f 290/290/290 299/299/299 300/300/300
f 301/301/301 311/311/311 302/302/302
f 302/302/302 311/311/311 312/312/312
f 302/302/302 312/312/312 303/303/303
f 303/303/303 312/312/312 313/313/313
f 303/303/303 313/313/313 304/304/304
f 304/304/304 313/313/313 314/314/314
f 304/304/304 314/314/314 305/305/305
f 305/305/305 314/314/314 315/315/315
f 305/305/305 315/315/315 306/306/306
f 306/306/306 315/315/315 316/316/316
f 306/306/306 316/316/316 307/307/307
f 307/307/307 316/316/316 317/317/317
f 307/307/307 317/317/317 308/308/308
f 308/308/308 317/317/317 318/318/318
f 308/308/308 318/318/318 309/309/309
f 309/309/309 318/318/318 319/319/319
f 309/309/309 319/319/319 310/310/310
f 310/310/310 319/319/319 320/320/320
f 311/311/311 321/321/321 312/312/312
f 312/312/312 321/321/321 322/322/322
f 312/312/312 322/322/322 313/313/313
f 313/313/313 322/322/322 323/323/323
f 313/313/313 323/323/323 314/314/314
f 314/314/314 323/323/323 324/324/324
f 314/314/314 324/324/324 315/315/315
f 315/315/315 324/324/324 325/325/325
f 315/315/315 325/325/325 316/316/316
f 316/316/316 325/325/325 326/326/326
f 316/316/316 326/326/326 317/317/317
f 317/317/317 326/326/326 327/327/327
f 317/317/317 327/327/327 318/318/318
f 318/318/318 327/327/327 328/328/328
f 318/318/318 328/328/328 319/319/319
f 319/319/319 328/328/328 329/329/329
f 319/319/319 329/329/329 320/320/320
f 320/320/320 329/329/329 330/330/330
f 321/321/321 331/331/331 322/322/322
f 322/322/322 331/331/331 332/332/332
f 322/322/322 332/332/332 323/323/323
f 323/323/323 332/332/332 333/333/333
f 323/323/323 333/333/333 324/324/324
f 324/324/324 333/333/333 334/334/334
f 324/324/324 334/334/334 325/325/325
f 325/325/325 334/334/334 335/335/335
f 325/325/325 335/335/335 326/326/326
f 326/326/326 335/335/335 336/336/336
f 326/326/326 336/336/336 327/327/327
f 327/327/327 336/336/336 337/337/337
f 327/327/327 337/337/337 328/328/328
f 328/328/328 337/337/337 338/338/338
f 328/328/328 338/338/338 329/329/329
f 329/329/329 338/338/338 339/339/339
f 329/329/329 339/339/339 330/330/330
f 330/330/330 339/339/339 340/340/340
f 331/331/331 341/341/341 332/332/332
f 332/332/332 341/341/341 342/342/342
f 332/332/332 342/342/342 333/333/333
f 333/333/333 342/342/342 343/343/343
f 333/333/333 343/343/343 334/334/334
f 334/334/334 343/343/343 344/344/344
f 334/334/334 344/344/344 335/335/335
f 335/335/335 344/344/344 345/345/345
f 335/335/335 345/345/345 336/336/336
f 336/336/336 345/345/345 346/346/346
f 336/336/336 346/346/346 337/337/337
f 337/337/337 346/346/346 347/347/347
f 337/337/337 347/347/347 338/338/338
f 338/338/338 347/347/347 348/348/348
f 338/338/338 348/348/348 339/339/339
f 339/339/339 348/348/348 349/349/349
f 339/339/339 349/349/349 340/340/340
f 340/340/340 349/349/349 350/350/350
f 341/341/341 351/351/351 342/342/342
f 342/342/342 351/351/351 352/352/352
f 342/342/342 352/352/352 343/343/343
f 343/343/343 352/352/352 353/353/353
f 343/343/343 353/353/353 344/344/344
f 344/344/344 353/353/353 354/354/354
f 344/344/344 354/354/354 345/345/345
f 345/345/345 354/354/354 355/355/355
f 345/345/345 355/355/355 346/346/346
f 346/346/346 355/355/355 356/356/356
f 346/346/346 356/356/356 347/347/347
f 347/347/347 356/356/356 357/357/357
f 347/347/347 357/357/357 348/348/348
f 348/348/348 357/357/357 358/358/358
f 348/348/348 358/358/358 349/349/349
f 349/349/349 358/358/358 359/359/359
f 349/349/349 359/359/359 350/350/350
f 350/350/350 359/359/359 360/360/360
f 351/351/351 361/361/361 352/352/352
f 352/352/352 361/361/361 362/362/362
f 352/352/352 362/362/362 353/353/353
f 353/353/353 362/362/362 363/363/363
f 353/353/353 363/363/363 354/354/354
f 354/354/354 363/363/363 364/364/364
f 354/354/354 364/364/364 355/355/355
f 355/355/355 364/364/364 365/365/365
f 355/355/355 365/365/365 356/356/356
f 356/356/356 365/365/365 366/366/366
f 356/356/356 366/366/366 357/357/357
f 357/357/357 366/366/366 367/367/367
f 357/357/357 367/367/367 358/358/358
f 358/358/358 367/367/367 368/368/368
f 358/358/358 368/368/368 359/359/359
f 359/359/359 368/368/368 369/369/369
f 359/359/359 369/369/369 360/360/360
f 360/360/360 369/369/369 370/370/370
f 361/361/361 371/371/371 362/362/362
f 362/362/362 371/371/371 372/372/372
f 362/362/362 372/372/372 363/363/363
f 363/363/363 372/372/372 373/373/373
f 363/363/363 373/373/373 364/364/364
f 364/364/364 373/373/373 374/374/374
f 364/364/364 374/374/374 365/365/365
f 365/365/365 374/374/374 375/375/375
f 365/365/365 375/375/375 366/366/366
f 366/366/366 375/375/375 376/376/376
f 366/366/366 376/376/376 367/367/367
f 367/367/367 376/376/376 377/377/377
f 367/367/367 377/377/377 368/368/368
f 368/368/368 377/377/377 378/378/378
f 368/368/368 378/378/378 369/369/369
f 369/369/369 378/378/378 379/379/379
f 369/369/369 379/379/379 370/370/370
f 370/370/370 379/379/379 380/380/380
f 371/371/371 381/381/381 372/372/372
f 372/372/372 381/381/381 382/382/382
f 372/372/372 382/382/382 373/373/373
f 373/373/373 382/382/382 383/383/383
f 373/373/373 383/383/383 374/374/374
f 374/374/374 383/383/383 384/384/384
f 374/374/374 384/384/384 375/375/375
f 375/375/375 384/384/384 385/385/385
f 375/375/375 385/385/385 376/376/376
f 376/376/376 385/385/385 386/386/386
f 376/376/376 386/386/386 377/377/377
f 377/377/377 386/386/386 387/387/387
f 377/377/377 387/387/387 378/378/378
f 378/378/378 387/387/387 388/388/388
f 378/378/378 388/388/388 379/379/379
f 379/379/379 388/388/388 389/389/389
f 379/379/379 389/389/389 380/380/380
f 380/380/380 389/389/389 390/390/390
f 381/381/381 391/391/391 382/382/382
f 382/382/382 391/391/391 392/392/392
f 382/382/382 392/392/392 383/383/383
f 383/383/383 392/392/392 393/393/393
f 383/383/383 393/393/393 384/384/384
f 384/384/384 393/393/393 394/394/394
f 384/384/384 394/394/394 385/385/385
f 385/385/385 394/394/394 395/395/395
f 385/385/385 395/395/395 386/386/386
f 386/386/386 395/395/395 396/396/396
f 386/386/386 396/396/396 387/387/387
f 387/387/387 396/396/396 397/397/397
f 387/387/387 397/397/397 388/388/388
f 388/388/388 397/397/397 398/398/398
f 388/388/388 398/398/398 389/389/389
f 389/389/389 398/398/398 399/399/399
f 389/389/389 399/399/399 390/390/390
f 390/390/390 399/399/399 400/400/400
f 401/401/401 411/411/411 402/402/402
f 402/402/402 411/411/411 412/412/412
f 402/402/402 412/412/412 403/403/403
f 403/403/403 412/412/412 413/413/413
f 403/403/403 413/413/413 404/404/404
f 404/404/404 413/413/413 414/414/414
f 404/404/404 414/414/414 405/405/405
f 405/405/405 414/414/414 415/415/415
f 405/405/405 415/415/415 406/406/406
f 406/406/406 415/415/415 416/416/416
f 406/406/406 416/416/416 407/407/407
f 407/407/407 416/416/416 417/417/417
f 407/407/407 417/417/417 408/408/408
f 408/408/408 417/417/417 418/418/418
f 408/408/408 418/418/418 409/409/409
f 409/409/409 418/418/418 419/419/419
f 409/409/409 419/419/419 410/410/410
f 410/410/410 419/419/419 420/420/420
f 411/411/411 421/421/421 412/412/412
f 412/412/412 421/421/421 422/422/422
f 412/412/412 422/422/422 413/413/413
f 413/413/413 422/422/422 423/423/423
f 413/413/413 423/423/423 414/414/414
f 414/414/414 423/423/423 424/424/424
f 414/414/414 424/424/424 415/415/415
f 415/415/415 424/424/424 425/425/425
f 415/415/415 425/425/425 416/416/416
f 416/416/416 425/425/425 426/426/426
f 416/416/416 426/426/426 417/417/417
f 417/417/417 426/426/426 427/427/427
f 417/417/417 427/427/427 418/418/418
f 418/418/418 427/427/427 428/428/428
f 418/418/418 428/428/428 419/419/419
f 419/419/419 428/428/428 429/429/429
f 419/419/419 429/429/429 420/420/420
f 420/420/420 429/429/429 430/430/430
f 421/421/421 431/431/431 422/422/422
f 422/422/422 431/431/431 432/432/432
f 422/422/422 432/432/432 423/423/423
f 423/423/423 432/432/432 433/433/433
f 423/423/423 433/433/433 424/424/424
f 424/424/424 433/433/433 434/434/434
f 424/424/424 434/434/434 425/425/425
f 425/425/425 434/434/434 435/435/435
f 425/425/425 435/435/435 426/426/426
f 426/426/426 435/435/435 436/436/436
f 426/426/426 436/436/436 427/427/427
f 427/427/427 436/436/436 437/437/437
f 427/427/427 437/437/437 428/428/428
f 428/428/428 437/437/437 438/438/438
f 428/428/428 438/438/438 429/429/429
f 429/429/429 438/438/438 439/439/439
f 429/429/429 439/439/439 430/430/430
f 430/430/430 439/439/439 440/440/440
f 431/431/431 441/441/441 432/432/432
f 432/432/432 441/441/441 442/442/442
f 432/432/432 442/442/442 433/433/433
f 433/433/433 442/442/442 443/443/443
f 433/433/433 443/443/443 434/434/434
f 434/434/434 443/443/443 444/444/444
f 434/434/434 444/444/444 435/435/435
f 435/435/435 444/444/444 445/445/445
f 435/435/435 445/445/445 436/436/436
f 436/436/436 445/445/445 446/446/446
f 436/436/436 446/446/446 437/437/437
f 437/437/437 446/446/446 447/447/447
f 437/437/437 447/447/447 438/438/438
f 438/438/438 447/447/447 448/448/448
f 438/438/438 448/448/448 439/439/439
f 439/439/439 448/448/448 449/449/449
f 439/439/439 449/449/449 440/440/440
f 440/440/440 449/449/449 450/450/450
f 441/441/441 451/451/451 442/442/442
f 442/442/442 451/451/451 452/452/452
f 442/442/442 452/452/452 443/443/443
f 443/443/443 452/452/452 453/453/453
f 443/443/443 453/453/453 444/444/444
f 444/444/444 453/453/453 454/454/454
f 444/444/444 454/454/454 445/445/445
f 445/445/445 454/454/454 455/455/455
f 445/445/445 455/455/455 446/446/446
f 446/446/446 455/455/455 456/456/456
f 446/446/446 456/456/456 447/447/447
f 447/447/447 456/456/456 457/457/457
f 447/447/447 457/457/457 448/448/448
f 448/448/448 457/457/457 458/458/458
f 448/448/448 458/458/458 449/449/449
f 449/449/449 458/458/458 459/459/459
f 449/449/449 459/459/459 450/450/450
f 450/450/450 459/459/459 460/460/460
f 451/451/451 461/461/461 452/452/452
f 452/452/452 461/461/461 462/462/462
f 452/452/452 462/462/462 453/453/453
f 453/453/453 462/462/462 463/463/463
f 453/453/453 463/463/463 454/454/454
f 454/454/454 463/463/463 464/464/464
f 454/454/454 464/464/464 455/455/455
f 455/455/455 464/464/464 465/465/465
f 455/455/455 465/465/465 456/456/456
f 456/456/456 465/465/465 466/466/466
f 456/456/456 466/466/466 457/457/457
f 457/457/457 466/466/466 467/467/467
f 457/457/457 467/467/467 458/458/458
f 458/458/458 467/467/467 468/468/468
f 458/458/458 468/468/468 459/459/459
f 459/459/459 468/468/468 469/469/469
f 459/459/459 469/469/469 460/460/460
f 460/460/460 469/469/469 470/470/470
f 461/461/461 471/471/471 462/462/462
f 462/462/462 471/471/471 472/472/472
f 462/462/462 472/472/472 463/463/463
f 463/463/463 472/472/472 473/473/473
f 463/463/463 473/473/473 464/464/464
f 464/464/464 473/473/473 474/474/474
f 464/464/464 474/474/474 465/465/465
f 465/465/465 474/474/474 475/475/475
f 465/465/465 475/475/475 466/466/466
f 466/466/466 475/475/475 476/476/476
f 466/466/466 476/476/476 467/467/467
f 467/467/467 476/476/476 477/477/477
f 467/467/467 477/477/477 468/468/468
f 468/468/468 477/477/477 478/478/478
f 468/468/468 478/478/478 469/469/469
f 469/469/469 478/478/478 479/479/479
f 469/469/469 479/479/479 470/470/470
f 470/470/470 479/479/479 480/480/480
f 471/471/471 481/481/481 472/472/472
f 472/472/472 481/481/481 482/482/482
f 472/472/472 482/482/482 473/473/473
f 473/473/473 482/482/482 483/483/483
f 473/473/473 483/483/483 474/474/474
f 474/474/474 483/483/483 484/484/484
f 474/474/474 484/484/484 475/475/475
f 475/475/475 484/484/484 485/485/485
f 475/475/475 485/485/485 476/476/476
f 476/476/476 485/485/485 486/486/486
f 476/476/476 486/486/486 477/477/477
f 477/477/477 486/486/486 487/487/487
f 477/477/477 487/487/487 478/478/478
f 478/478/478 487/487/487 488/488/488
f 478/478/478 488/488/488 479/479/479
f 479/479/479 488/488/488 489/489/489
f 479/479/479 489/489/489 480/480/480
f 480/480/480 489/489/489 490/490/490
f 481/481/481 491/491/491 482/482/482
f 482/482/482 491/491/491 492/492/492
f 482/482/482 492/492/492 483/483/483
f 483/483/483 492/492/492 493/493/493
f 483/483/483 493/493/493 484/484/484
f 484/484/484 493/493/493 494/494/494
f 484/484/484 494/494/494 485/485/485
f 485/485/485 494/494/494 495/495/495
f 485/485/485 495/495/495 486/486/486
f 486/486/486 495/495/495 496/496/496
f 486/486/486 496/496/496 487/487/487
f 487/487/487 496/496/496 497/497/497
f 487/487/487 497/497/497 488/488/488
f 488/488/488 497/497/497 498/498/498
f 488/488/488 498/498/498 489/489/489
f 489/489/489 498/498/498 499/499/499
f 489/489/489 499/499/499 490/490/490
f 490/490/490 499/499/499 500/500/500
f 501/501/501 511/511/511 502/502/502
f 502/502/502 511/511/511 512/512/512
f 502/502/502 512/512/512 503/503/503
f 503/503/503 512/512/512 513/513/513
f 503/503/503 513/513/513 504/504/504
f 504/504/504 513/513/513 514/514/514
f 504/504/504 514/514/514 505/505/505
f 505/505/505 514/514/514 515/515/515
f 505/505/505 515/515/515 506/506/506
f 506/506/506 515/515/515 516/516/516
f 506/506/506 516/516/516 507/507/507
f 507/507/507 516/516/516 517/517/517
f 507/507/507 517/517/517 508/508/508
f 508/508/508 517/517/517 518/518/518
f 508/508/508 518/518/518 509/509/509
f 509/509/509 518/518/518 519/519/519
f 509/509/509 519/519/519 510/510/510
f 510/510/510 519/519/519 520/520/520
f 511/511/511 521/521/521 512/512/512
f 512/512/512 521/521/521 522/522/522
f 512/512/512 522/522/522 513/513/513
f 513/513/513 522/522/522 523/523/523
f 513/513/513 523/523/523 514/514/514
f 514/514/514 523/523/523 524/524/524
f 514/514/514 524/524/524 515/515/515
f 515/515/515 524/524/524 525/525/525
f 515/515/515 525/525/525 516/516/516
f 516/516/516 525/525/525 526/526/526
f 516/516/516 526/526/526 517/517/517
f 517/517/517 526/526/526 527/527/527
f 517/517/517 527/527/527 518/518/518
f 518/518/518 527/527/527 528/528/528
f 518/518/518 528/528/528 519/519/519
f 519/519/519 528/528/528 529/529/529
f 519/519/519 529/529/529 520/520/520
f 520/520/520 529/529/529 530/530/530
f 521/521/521 531/531/531 522/522/522
f 522/522/522 531/531/531 532/532/532
f 522/522/522 532/532/532 523/523/523
f 523/523/523 532/532/532 533/533/533
f 523/523/523 533/533/533 524/524/524
f 524/524/524 533/533/533 534/534/534
f 524/524/524 534/534/534 525/525/525
f 525/525/525 534/534/534 535/535/535
f 525/525/525 535/535/535 526/526/526
f 526/526/526 535/535/535 536/536/536
f 526/526/526 536/536/536 527/527/527
f 527/527/527 536/536/536 537/537/537
f 527/527/527 537/537/537 528/528/528
f 528/528/528 537/537/537 538/538/538
f 528/528/528 538/538/538 529/529/529
f 529/529/529 538/538/538 539/539/539
f 529/529/529 539/539/539 530/530/530
f 530/530/530 539/539/539 540/540/540
f 531/531/531 541/541/541 532/532/532
f 532/532/532 541/541/541 542/542/542
f 532/532/532 542/542/542 533/533/533
f 533/533/533 542/542/542 543/543/543
f 533/533/533 543/543/543 534/534/534
f 534/534/534 543/543/543 544/544/544
f 534/534/534 544/544/544 535/535/535
f 535/535/535 544/544/544 545/545/545
f 535/535/535 545/545/545 536/536/536
f 536/536/536 545/545/545 546/546/546
f 536/536/536 546/546/546 537/537/537
f 537/537/537 546/546/546 547/547/547
f 537/537/537 547/547/547 538/538/538
f 538/538/538 547/547/547 548/548/548
f 538/538/538 548/548/548 539/539/539
f 539/539/539 548/548/548 549/549/549
f 539/539/539 549/549/549 540/540/540
f 540/540/540 549/549/549 550/550/550
f 541/541/541 551/551/551 542/542/542
f 542/542/542 551/551/551 552/552/552
f 542/542/542 552/552/552 543/543/543
f 543/543/543 552/552/552 553/553/553
f 543/543/543 553/553/553 544/544/544
f 544/544/544 553/553/553 554/554/554
f 544/544/544 554/554/554 545/545/545
f 545/545/545 554/554/554 555/555/555
f 545/545/545 555/555/555 546/546/546
f 546/546/546 555/555/555 556/556/556
f 546/546/546 556/556/556 547/547/547
f 547/547/547 556/556/556 557/557/557
f 547/547/547 557/557/557 548/548/548
f 548/548/548 557/557/557 558/558/558
f 548/548/548 558/558/558 549/549/549
f 549/549/549 558/558/558 559/559/559
f 549/549/549 559/559/559 550/550/550
f 550/550/550 559/559/559 560/560/560
f 551/551/551 561/561/561 552/552/552
f 552/552/552 561/561/561 562/562/562
f 552/552/552 562/562/562 553/553/553
f 553/553/553 562/562/562 563/563/563
f 553/553/553 563/563/563 554/554/554
f 554/554/554 563/563/563 564/564/564
f 554/554/554 564/564/564 555/555/555
f 555/555/555 564/564/564 565/565/565
f 555/555/555 565/565/565 556/556/556
f 556/556/556 565/565/565 566/566/566
f 556/556/556 566/566/566 557/557/557
f 557/557/557 566/566/566 567/567/567
f 557/557/557 567/567/567 558/558/558
f 558/558/558 567/567/567 568/568/568
f 558/558/558 568/568/568 559/559/559
f 559/559/559 568/568/568 569/569/569
f 559/559/559 569/569/569 560/560/560
f 560/560/560 569/569/569 570/570/570
f 561/561/561 571/571/571 562/562/562
f 562/562/562 571/571/571 572/572/572
f 562/562/562 572/572/572 563/563/563
f 563/563/563 572/572/572 573/573/573
f 563/563/563 573/573/573 564/564/564
f 564/564/564 573/573/573 574/574/574
f 564/564/564 574/574/574 565/565/565
f 565/565/565 574/574/574 575/575/575
f 565/565/565 575/575/575 566/566/566
f 566/566/566 575/575/575 576/576/576
f 566/566/566 576/576/576 567/567/567
f 567/567/567 576/576/576 577/577/577
f 567/567/567 577/577/577 568/568/568
f 568/568/568 577/577/577 578/578/578
f 568/568/568 578/578/578 569/569/569
f 569/569/569 578/578/578 579/579/579
f 569/569/569 579/579/579 570/570/570
f 570/570/570 579/579/579 580/580/580
f 571/571/571 581/581/581 572/572/572
f 572/572/572 581/581/581 582/582/582
f 572/572/572 582/582/582 573/573/573
f 573/573/573 582/582/582 583/583/583
f 573/573/573 583/583/583 574/574/574
f 574/574/574 583/583/583 584/584/584
f 574/574/574 584/584/584 575/575/575
f 575/575/575 584/584/584 585/585/585
f 575/575/575 585/585/585 576/576/576
f 576/576/576 585/585/585 586/586/586
f 576/576/576 586/586/586 577/577/577
f 577/577/577 586/586/586 587/587/587
f 577/577/577 587/587/587 578/578/578
f 578/578/578 587/587/587 588/588/588
f 578/578/578 588/588/588 579/579/579
f 579/579/579 588/588/588 589/589/589
f 579/579/579 589/589/589 580/580/580
f 580/580/580 589/589/589 590/590/590
f 581/581/581 591/591/591 582/582/582
f 582/582/582 591/591/591 592/592/592
f 582/582/582 592/592/592 583/583/583
f 583/583/583 592/592/592 593/593/593
f 583/583/583 593/593/593 584/584/584
f 584/584/584 593/593/593 594/594/594
f 584/584/584 594/594/594 585/585/585
f 585/585/585 594/594/594 595/595/595
f 585/585/585 595/595/595 586/586/586
f 586/586/586 595/595/595 596/596/596
f 586/586/586 596/596/596 587/587/587
f 587/587/587 596/596/596 597/597/597
f 587/587/587 597/597/597 588/588/588
f 588/588/588 597/597/597 598/598/598
f 588/588/588 598/598/598 589/589/589
f 589/589/589 598/598/598 599/599/599
f 589/589/589 599/599/599 590/590/590
f 590/590/590 599/599/599 600/600/600
