# Top-half low-poly rounded beveled cube, generated for DeterministicRouletteCase
# Size: 1 Unity unit, bevel radius: 0.14, bevel segments: 4
mtllib Rounded_Beveled_Cube.mtl
o Rounded_Beveled_Cube_TopHalf_Low
v 0.458995 0.000000 -0.458995
v 0.458995 0.360000 -0.458995
v 0.465497 0.000000 -0.451497
v 0.472000 0.000000 -0.444000
v 0.472000 0.360000 -0.444000
v 0.478610 0.000000 -0.433305
v 0.485220 0.000000 -0.422610
v 0.485220 0.360000 -0.422610
v 0.490520 0.000000 -0.408282
v 0.495820 0.000000 -0.393955
v 0.495820 0.360000 -0.393955
v 0.497910 0.000000 -0.376977
v 0.500000 0.000000 -0.360000
v 0.500000 0.360000 -0.360000
v 0.500000 0.000000 0.000000
v 0.500000 0.000000 0.360000
v 0.500000 0.360000 0.360000
v 0.497910 0.000000 0.376977
v 0.495820 0.000000 0.393955
v 0.495820 0.360000 0.393955
v 0.490520 0.000000 0.408282
v 0.485220 0.000000 0.422610
v 0.485220 0.360000 0.422610
v 0.478610 0.000000 0.433305
v 0.472000 0.000000 0.444000
v 0.472000 0.360000 0.444000
v 0.465497 0.000000 0.451497
v 0.458995 0.000000 0.458995
v 0.458995 0.360000 0.458995
v 0.457483 0.384371 -0.457483
v 0.469825 0.387456 -0.442369
v 0.482202 0.390551 -0.421101
v 0.491993 0.392998 -0.392998
v 0.495820 0.393955 -0.360000
v 0.495820 0.393955 0.360000
v 0.491993 0.392998 0.392998
v 0.482202 0.390551 0.421101
v 0.469825 0.387456 0.442369
v 0.457483 0.384371 0.457483
v 0.453333 0.406667 -0.453333
v 0.463989 0.411995 -0.437992
v 0.474310 0.417155 -0.417155
v 0.482202 0.421101 -0.390551
v 0.485220 0.422610 -0.360000
v 0.485220 0.422610 0.360000
v 0.482202 0.421101 0.390551
v 0.474310 0.417155 0.417155
v 0.463989 0.411995 0.437992
v 0.453333 0.406667 0.453333
v 0.447457 0.425593 -0.447457
v 0.456039 0.432029 -0.432029
v 0.463989 0.437992 -0.411995
v 0.469825 0.442369 -0.387456
v 0.472000 0.444000 -0.360000
v 0.472000 0.444000 0.360000
v 0.469825 0.442369 0.387456
v 0.463989 0.437992 0.411995
v 0.456039 0.432029 0.432029
v 0.447457 0.425593 0.447457
v 0.440829 0.440829 -0.440829
v 0.447457 0.447457 -0.425593
v 0.453333 0.453333 -0.406667
v 0.457483 0.457483 -0.384371
v 0.458995 0.458995 -0.360000
v 0.458995 0.458995 0.360000
v 0.457483 0.457483 0.384371
v 0.453333 0.453333 0.406667
v 0.447457 0.447457 0.425593
v 0.440829 0.440829 0.440829
v -0.458995 0.000000 0.458995
v -0.458995 0.360000 0.458995
v -0.465497 0.000000 0.451497
v -0.472000 0.000000 0.444000
v -0.472000 0.360000 0.444000
v -0.478610 0.000000 0.433305
v -0.485220 0.000000 0.422610
v -0.485220 0.360000 0.422610
v -0.490520 0.000000 0.408282
v -0.495820 0.000000 0.393955
v -0.495820 0.360000 0.393955
v -0.497910 0.000000 0.376977
v -0.500000 0.000000 0.360000
v -0.500000 0.360000 0.360000
v -0.500000 0.000000 0.000000
v -0.500000 0.000000 -0.360000
v -0.500000 0.360000 -0.360000
v -0.497910 0.000000 -0.376977
v -0.495820 0.000000 -0.393955
v -0.495820 0.360000 -0.393955
v -0.490520 0.000000 -0.408282
v -0.485220 0.000000 -0.422610
v -0.485220 0.360000 -0.422610
v -0.478610 0.000000 -0.433305
v -0.472000 0.000000 -0.444000
v -0.472000 0.360000 -0.444000
v -0.465497 0.000000 -0.451497
v -0.458995 0.000000 -0.458995
v -0.458995 0.360000 -0.458995
v -0.457483 0.384371 0.457483
v -0.469825 0.387456 0.442369
v -0.482202 0.390551 0.421101
v -0.491993 0.392998 0.392998
v -0.495820 0.393955 0.360000
v -0.495820 0.393955 -0.360000
v -0.491993 0.392998 -0.392998
v -0.482202 0.390551 -0.421101
v -0.469825 0.387456 -0.442369
v -0.457483 0.384371 -0.457483
v -0.453333 0.406667 0.453333
v -0.463989 0.411995 0.437992
v -0.474310 0.417155 0.417155
v -0.482202 0.421101 0.390551
v -0.485220 0.422610 0.360000
v -0.485220 0.422610 -0.360000
v -0.482202 0.421101 -0.390551
v -0.474310 0.417155 -0.417155
v -0.463989 0.411995 -0.437992
v -0.453333 0.406667 -0.453333
v -0.447457 0.425593 0.447457
v -0.456039 0.432029 0.432029
v -0.463989 0.437992 0.411995
v -0.469825 0.442369 0.387456
v -0.472000 0.444000 0.360000
v -0.472000 0.444000 -0.360000
v -0.469825 0.442369 -0.387456
v -0.463989 0.437992 -0.411995
v -0.456039 0.432029 -0.432029
v -0.447457 0.425593 -0.447457
v -0.440829 0.440829 0.440829
v -0.447457 0.447457 0.425593
v -0.453333 0.453333 0.406667
v -0.457483 0.457483 0.384371
v -0.458995 0.458995 0.360000
v -0.458995 0.458995 -0.360000
v -0.457483 0.457483 -0.384371
v -0.453333 0.453333 -0.406667
v -0.447457 0.447457 -0.425593
v -0.440829 0.440829 -0.440829
v -0.440829 0.440829 -0.440829
v -0.447457 0.447457 -0.425593
v -0.425593 0.447457 -0.447457
v -0.432029 0.456039 -0.432029
v -0.406667 0.453333 -0.453333
v -0.411995 0.463989 -0.437992
v -0.384371 0.457483 -0.457483
v -0.387456 0.469825 -0.442369
v -0.360000 0.458995 -0.458995
v -0.360000 0.472000 -0.444000
v 0.360000 0.458995 -0.458995
v 0.360000 0.472000 -0.444000
v 0.384371 0.457483 -0.457483
v 0.387456 0.469825 -0.442369
v 0.406667 0.453333 -0.453333
v 0.411995 0.463989 -0.437992
v 0.425593 0.447457 -0.447457
v 0.432029 0.456039 -0.432029
v 0.440829 0.440829 -0.440829
v 0.447457 0.447457 -0.425593
v -0.453333 0.453333 -0.406667
v -0.437992 0.463989 -0.411995
v -0.417155 0.474310 -0.417155
v -0.390551 0.482202 -0.421101
v -0.360000 0.485220 -0.422610
v 0.360000 0.485220 -0.422610
v 0.390551 0.482202 -0.421101
v 0.417155 0.474310 -0.417155
v 0.437992 0.463989 -0.411995
v 0.453333 0.453333 -0.406667
v -0.457483 0.457483 -0.384371
v -0.442369 0.469825 -0.387456
v -0.421101 0.482202 -0.390551
v -0.392998 0.491993 -0.392998
v -0.360000 0.495820 -0.393955
v 0.360000 0.495820 -0.393955
v 0.392998 0.491993 -0.392998
v 0.421101 0.482202 -0.390551
v 0.442369 0.469825 -0.387456
v 0.457483 0.457483 -0.384371
v -0.458995 0.458995 -0.360000
v -0.444000 0.472000 -0.360000
v -0.422610 0.485220 -0.360000
v -0.393955 0.495820 -0.360000
v -0.360000 0.500000 -0.360000
v 0.360000 0.500000 -0.360000
v 0.393955 0.495820 -0.360000
v 0.422610 0.485220 -0.360000
v 0.444000 0.472000 -0.360000
v 0.458995 0.458995 -0.360000
v -0.458995 0.458995 0.360000
v -0.444000 0.472000 0.360000
v -0.422610 0.485220 0.360000
v -0.393955 0.495820 0.360000
v -0.360000 0.500000 0.360000
v 0.360000 0.500000 0.360000
v 0.393955 0.495820 0.360000
v 0.422610 0.485220 0.360000
v 0.444000 0.472000 0.360000
v 0.458995 0.458995 0.360000
v -0.457483 0.457483 0.384371
v -0.442369 0.469825 0.387456
v -0.421101 0.482202 0.390551
v -0.392998 0.491993 0.392998
v -0.360000 0.495820 0.393955
v 0.360000 0.495820 0.393955
v 0.392998 0.491993 0.392998
v 0.421101 0.482202 0.390551
v 0.442369 0.469825 0.387456
v 0.457483 0.457483 0.384371
v -0.453333 0.453333 0.406667
v -0.437992 0.463989 0.411995
v -0.417155 0.474310 0.417155
v -0.390551 0.482202 0.421101
v -0.360000 0.485220 0.422610
v 0.360000 0.485220 0.422610
v 0.390551 0.482202 0.421101
v 0.417155 0.474310 0.417155
v 0.437992 0.463989 0.411995
v 0.453333 0.453333 0.406667
v -0.447457 0.447457 0.425593
v -0.432029 0.456039 0.432029
v -0.411995 0.463989 0.437992
v -0.387456 0.469825 0.442369
v -0.360000 0.472000 0.444000
v 0.360000 0.472000 0.444000
v 0.387456 0.469825 0.442369
v 0.411995 0.463989 0.437992
v 0.432029 0.456039 0.432029
v 0.447457 0.447457 0.425593
v -0.425593 0.447457 0.447457
v -0.406667 0.453333 0.453333
v -0.384371 0.457483 0.457483
v -0.360000 0.458995 0.458995
v 0.360000 0.458995 0.458995
v 0.384371 0.457483 0.457483
v 0.406667 0.453333 0.453333
v 0.425593 0.447457 0.447457
v -0.458995 0.000000 0.458995
v -0.451497 0.000000 0.465497
v -0.458995 0.360000 0.458995
v -0.444000 0.000000 0.472000
v -0.444000 0.360000 0.472000
v -0.457483 0.384371 0.457483
v -0.442369 0.387456 0.469825
v -0.453333 0.406667 0.453333
v -0.437992 0.411995 0.463989
v -0.447457 0.425593 0.447457
v -0.432029 0.432029 0.456039
v -0.440829 0.440829 0.440829
v -0.425593 0.447457 0.447457
v -0.433305 0.000000 0.478610
v -0.422610 0.000000 0.485220
v -0.422610 0.360000 0.485220
v -0.421101 0.390551 0.482202
v -0.417155 0.417155 0.474310
v -0.411995 0.437992 0.463989
v -0.406667 0.453333 0.453333
v -0.408282 0.000000 0.490520
v -0.393955 0.000000 0.495820
v -0.393955 0.360000 0.495820
v -0.392998 0.392998 0.491993
v -0.390551 0.421101 0.482202
v -0.387456 0.442369 0.469825
v -0.384371 0.457483 0.457483
v -0.376977 0.000000 0.497910
v -0.360000 0.000000 0.500000
v -0.360000 0.360000 0.500000
v -0.360000 0.393955 0.495820
v -0.360000 0.422610 0.485220
v -0.360000 0.444000 0.472000
v -0.360000 0.458995 0.458995
v 0.000000 0.000000 0.500000
v 0.360000 0.000000 0.500000
v 0.360000 0.360000 0.500000
v 0.360000 0.393955 0.495820
v 0.360000 0.422610 0.485220
v 0.360000 0.444000 0.472000
v 0.360000 0.458995 0.458995
v 0.376977 0.000000 0.497910
v 0.393955 0.000000 0.495820
v 0.393955 0.360000 0.495820
v 0.392998 0.392998 0.491993
v 0.390551 0.421101 0.482202
v 0.387456 0.442369 0.469825
v 0.384371 0.457483 0.457483
v 0.408282 0.000000 0.490520
v 0.422610 0.000000 0.485220
v 0.422610 0.360000 0.485220
v 0.421101 0.390551 0.482202
v 0.417155 0.417155 0.474310
v 0.411995 0.437992 0.463989
v 0.406667 0.453333 0.453333
v 0.433305 0.000000 0.478610
v 0.444000 0.000000 0.472000
v 0.444000 0.360000 0.472000
v 0.442369 0.387456 0.469825
v 0.437992 0.411995 0.463989
v 0.432029 0.432029 0.456039
v 0.425593 0.447457 0.447457
v 0.451497 0.000000 0.465497
v 0.458995 0.000000 0.458995
v 0.458995 0.360000 0.458995
v 0.457483 0.384371 0.457483
v 0.453333 0.406667 0.453333
v 0.447457 0.425593 0.447457
v -0.425593 0.447457 -0.447457
v -0.447457 0.425593 -0.447457
v -0.432029 0.432029 -0.456039
v -0.453333 0.406667 -0.453333
v -0.437992 0.411995 -0.463989
v -0.457483 0.384371 -0.457483
v -0.442369 0.387456 -0.469825
v -0.458995 0.360000 -0.458995
v -0.444000 0.360000 -0.472000
v -0.458995 0.000000 -0.458995
v -0.451497 0.000000 -0.465497
v -0.444000 0.000000 -0.472000
v -0.406667 0.453333 -0.453333
v -0.411995 0.437992 -0.463989
v -0.417155 0.417155 -0.474310
v -0.421101 0.390551 -0.482202
v -0.422610 0.360000 -0.485220
v -0.433305 0.000000 -0.478610
v -0.422610 0.000000 -0.485220
v -0.384371 0.457483 -0.457483
v -0.387456 0.442369 -0.469825
v -0.390551 0.421101 -0.482202
v -0.392998 0.392998 -0.491993
v -0.393955 0.360000 -0.495820
v -0.408282 0.000000 -0.490520
v -0.393955 0.000000 -0.495820
v -0.360000 0.458995 -0.458995
v -0.360000 0.444000 -0.472000
v -0.360000 0.422610 -0.485220
v -0.360000 0.393955 -0.495820
v -0.360000 0.360000 -0.500000
v -0.376977 0.000000 -0.497910
v -0.360000 0.000000 -0.500000
v 0.360000 0.458995 -0.458995
v 0.360000 0.444000 -0.472000
v 0.360000 0.422610 -0.485220
v 0.360000 0.393955 -0.495820
v 0.360000 0.360000 -0.500000
v 0.000000 0.000000 -0.500000
v 0.360000 0.000000 -0.500000
v 0.384371 0.457483 -0.457483
v 0.387456 0.442369 -0.469825
v 0.390551 0.421101 -0.482202
v 0.392998 0.392998 -0.491993
v 0.393955 0.360000 -0.495820
v 0.376977 0.000000 -0.497910
v 0.393955 0.000000 -0.495820
v 0.406667 0.453333 -0.453333
v 0.411995 0.437992 -0.463989
v 0.417155 0.417155 -0.474310
v 0.421101 0.390551 -0.482202
v 0.422610 0.360000 -0.485220
v 0.408282 0.000000 -0.490520
v 0.422610 0.000000 -0.485220
v 0.425593 0.447457 -0.447457
v 0.432029 0.432029 -0.456039
v 0.437992 0.411995 -0.463989
v 0.442369 0.387456 -0.469825
v 0.444000 0.360000 -0.472000
v 0.433305 0.000000 -0.478610
v 0.444000 0.000000 -0.472000
v 0.447457 0.425593 -0.447457
v 0.453333 0.406667 -0.453333
v 0.457483 0.384371 -0.457483
v 0.458995 0.360000 -0.458995
v 0.451497 0.000000 -0.465497
v 0.458995 0.000000 -0.458995
vt 0.000000 0.500000
vt 0.000000 0.555556
vt 0.055556 0.500000
vt 0.111111 0.500000
vt 0.111111 0.555556
vt 0.166667 0.500000
vt 0.222222 0.500000
vt 0.222222 0.555556
vt 0.277778 0.500000
vt 0.333333 0.500000
vt 0.333333 0.555556
vt 0.388889 0.500000
vt 0.444444 0.500000
vt 0.444444 0.555556
vt 0.500000 0.500000
vt 0.555556 0.500000
vt 0.555556 0.555556
vt 0.611111 0.500000
vt 0.666667 0.500000
vt 0.666667 0.555556
vt 0.722222 0.500000
vt 0.777778 0.500000
vt 0.777778 0.555556
vt 0.833333 0.500000
vt 0.888889 0.500000
vt 0.888889 0.555556
vt 0.944444 0.500000
vt 1.000000 0.500000
vt 1.000000 0.555556
vt 0.000000 0.666667
vt 0.111111 0.666667
vt 0.222222 0.666667
vt 0.333333 0.666667
vt 0.444444 0.666667
vt 0.555556 0.666667
vt 0.666667 0.666667
vt 0.777778 0.666667
vt 0.888889 0.666667
vt 1.000000 0.666667
vt 0.000000 0.777778
vt 0.111111 0.777778
vt 0.222222 0.777778
vt 0.333333 0.777778
vt 0.444444 0.777778
vt 0.555556 0.777778
vt 0.666667 0.777778
vt 0.777778 0.777778
vt 0.888889 0.777778
vt 1.000000 0.777778
vt 0.000000 0.888889
vt 0.111111 0.888889
vt 0.222222 0.888889
vt 0.333333 0.888889
vt 0.444444 0.888889
vt 0.555556 0.888889
vt 0.666667 0.888889
vt 0.777778 0.888889
vt 0.888889 0.888889
vt 1.000000 0.888889
vt 0.000000 1.000000
vt 0.111111 1.000000
vt 0.222222 1.000000
vt 0.333333 1.000000
vt 0.444444 1.000000
vt 0.555556 1.000000
vt 0.666667 1.000000
vt 0.777778 1.000000
vt 0.888889 1.000000
vt 1.000000 1.000000
vt 0.000000 0.500000
vt 0.000000 0.555556
vt 0.055556 0.500000
vt 0.111111 0.500000
vt 0.111111 0.555556
vt 0.166667 0.500000
vt 0.222222 0.500000
vt 0.222222 0.555556
vt 0.277778 0.500000
vt 0.333333 0.500000
vt 0.333333 0.555556
vt 0.388889 0.500000
vt 0.444444 0.500000
vt 0.444444 0.555556
vt 0.500000 0.500000
vt 0.555556 0.500000
vt 0.555556 0.555556
vt 0.611111 0.500000
vt 0.666667 0.500000
vt 0.666667 0.555556
vt 0.722222 0.500000
vt 0.777778 0.500000
vt 0.777778 0.555556
vt 0.833333 0.500000
vt 0.888889 0.500000
vt 0.888889 0.555556
vt 0.944444 0.500000
vt 1.000000 0.500000
vt 1.000000 0.555556
vt 0.000000 0.666667
vt 0.111111 0.666667
vt 0.222222 0.666667
vt 0.333333 0.666667
vt 0.444444 0.666667
vt 0.555556 0.666667
vt 0.666667 0.666667
vt 0.777778 0.666667
vt 0.888889 0.666667
vt 1.000000 0.666667
vt 0.000000 0.777778
vt 0.111111 0.777778
vt 0.222222 0.777778
vt 0.333333 0.777778
vt 0.444444 0.777778
vt 0.555556 0.777778
vt 0.666667 0.777778
vt 0.777778 0.777778
vt 0.888889 0.777778
vt 1.000000 0.777778
vt 0.000000 0.888889
vt 0.111111 0.888889
vt 0.222222 0.888889
vt 0.333333 0.888889
vt 0.444444 0.888889
vt 0.555556 0.888889
vt 0.666667 0.888889
vt 0.777778 0.888889
vt 0.888889 0.888889
vt 1.000000 0.888889
vt 0.000000 1.000000
vt 0.111111 1.000000
vt 0.222222 1.000000
vt 0.333333 1.000000
vt 0.444444 1.000000
vt 0.555556 1.000000
vt 0.666667 1.000000
vt 0.777778 1.000000
vt 0.888889 1.000000
vt 1.000000 1.000000
vt 0.000000 0.000000
vt 0.000000 0.111111
vt 0.111111 0.000000
vt 0.111111 0.111111
vt 0.222222 0.000000
vt 0.222222 0.111111
vt 0.333333 0.000000
vt 0.333333 0.111111
vt 0.444444 0.000000
vt 0.444444 0.111111
vt 0.555556 0.000000
vt 0.555556 0.111111
vt 0.666667 0.000000
vt 0.666667 0.111111
vt 0.777778 0.000000
vt 0.777778 0.111111
vt 0.888889 0.000000
vt 0.888889 0.111111
vt 1.000000 0.000000
vt 1.000000 0.111111
vt 0.000000 0.222222
vt 0.111111 0.222222
vt 0.222222 0.222222
vt 0.333333 0.222222
vt 0.444444 0.222222
vt 0.555556 0.222222
vt 0.666667 0.222222
vt 0.777778 0.222222
vt 0.888889 0.222222
vt 1.000000 0.222222
vt 0.000000 0.333333
vt 0.111111 0.333333
vt 0.222222 0.333333
vt 0.333333 0.333333
vt 0.444444 0.333333
vt 0.555556 0.333333
vt 0.666667 0.333333
vt 0.777778 0.333333
vt 0.888889 0.333333
vt 1.000000 0.333333
vt 0.000000 0.444444
vt 0.111111 0.444444
vt 0.222222 0.444444
vt 0.333333 0.444444
vt 0.444444 0.444444
vt 0.555556 0.444444
vt 0.666667 0.444444
vt 0.777778 0.444444
vt 0.888889 0.444444
vt 1.000000 0.444444
vt 0.000000 0.555556
vt 0.111111 0.555556
vt 0.222222 0.555556
vt 0.333333 0.555556
vt 0.444444 0.555556
vt 0.555556 0.555556
vt 0.666667 0.555556
vt 0.777778 0.555556
vt 0.888889 0.555556
vt 1.000000 0.555556
vt 0.000000 0.666667
vt 0.111111 0.666667
vt 0.222222 0.666667
vt 0.333333 0.666667
vt 0.444444 0.666667
vt 0.555556 0.666667
vt 0.666667 0.666667
vt 0.777778 0.666667
vt 0.888889 0.666667
vt 1.000000 0.666667
vt 0.000000 0.777778
vt 0.111111 0.777778
vt 0.222222 0.777778
vt 0.333333 0.777778
vt 0.444444 0.777778
vt 0.555556 0.777778
vt 0.666667 0.777778
vt 0.777778 0.777778
vt 0.888889 0.777778
vt 1.000000 0.777778
vt 0.000000 0.888889
vt 0.111111 0.888889
vt 0.222222 0.888889
vt 0.333333 0.888889
vt 0.444444 0.888889
vt 0.555556 0.888889
vt 0.666667 0.888889
vt 0.777778 0.888889
vt 0.888889 0.888889
vt 1.000000 0.888889
vt 0.111111 1.000000
vt 0.222222 1.000000
vt 0.333333 1.000000
vt 0.444444 1.000000
vt 0.555556 1.000000
vt 0.666667 1.000000
vt 0.777778 1.000000
vt 0.888889 1.000000
vt 0.500000 0.000000
vt 0.500000 0.055556
vt 0.555556 0.000000
vt 0.500000 0.111111
vt 0.555556 0.111111
vt 0.666667 0.000000
vt 0.666667 0.111111
vt 0.777778 0.000000
vt 0.777778 0.111111
vt 0.888889 0.000000
vt 0.888889 0.111111
vt 1.000000 0.000000
vt 1.000000 0.111111
vt 0.500000 0.166667
vt 0.500000 0.222222
vt 0.555556 0.222222
vt 0.666667 0.222222
vt 0.777778 0.222222
vt 0.888889 0.222222
vt 1.000000 0.222222
vt 0.500000 0.277778
vt 0.500000 0.333333
vt 0.555556 0.333333
vt 0.666667 0.333333
vt 0.777778 0.333333
vt 0.888889 0.333333
vt 1.000000 0.333333
vt 0.500000 0.388889
vt 0.500000 0.444444
vt 0.555556 0.444444
vt 0.666667 0.444444
vt 0.777778 0.444444
vt 0.888889 0.444444
vt 1.000000 0.444444
vt 0.500000 0.500000
vt 0.500000 0.555556
vt 0.555556 0.555556
vt 0.666667 0.555556
vt 0.777778 0.555556
vt 0.888889 0.555556
vt 1.000000 0.555556
vt 0.500000 0.611111
vt 0.500000 0.666667
vt 0.555556 0.666667
vt 0.666667 0.666667
vt 0.777778 0.666667
vt 0.888889 0.666667
vt 1.000000 0.666667
vt 0.500000 0.722222
vt 0.500000 0.777778
vt 0.555556 0.777778
vt 0.666667 0.777778
vt 0.777778 0.777778
vt 0.888889 0.777778
vt 1.000000 0.777778
vt 0.500000 0.833333
vt 0.500000 0.888889
vt 0.555556 0.888889
vt 0.666667 0.888889
vt 0.777778 0.888889
vt 0.888889 0.888889
vt 1.000000 0.888889
vt 0.500000 0.944444
vt 0.500000 1.000000
vt 0.555556 1.000000
vt 0.666667 1.000000
vt 0.777778 1.000000
vt 0.888889 1.000000
vt 0.000000 0.111111
vt 0.111111 0.000000
vt 0.111111 0.111111
vt 0.222222 0.000000
vt 0.222222 0.111111
vt 0.333333 0.000000
vt 0.333333 0.111111
vt 0.444444 0.000000
vt 0.444444 0.111111
vt 0.500000 0.000000
vt 0.500000 0.055556
vt 0.500000 0.111111
vt 0.000000 0.222222
vt 0.111111 0.222222
vt 0.222222 0.222222
vt 0.333333 0.222222
vt 0.444444 0.222222
vt 0.500000 0.166667
vt 0.500000 0.222222
vt 0.000000 0.333333
vt 0.111111 0.333333
vt 0.222222 0.333333
vt 0.333333 0.333333
vt 0.444444 0.333333
vt 0.500000 0.277778
vt 0.500000 0.333333
vt 0.000000 0.444444
vt 0.111111 0.444444
vt 0.222222 0.444444
vt 0.333333 0.444444
vt 0.444444 0.444444
vt 0.500000 0.388889
vt 0.500000 0.444444
vt 0.000000 0.555556
vt 0.111111 0.555556
vt 0.222222 0.555556
vt 0.333333 0.555556
vt 0.444444 0.555556
vt 0.500000 0.500000
vt 0.500000 0.555556
vt 0.000000 0.666667
vt 0.111111 0.666667
vt 0.222222 0.666667
vt 0.333333 0.666667
vt 0.444444 0.666667
vt 0.500000 0.611111
vt 0.500000 0.666667
vt 0.000000 0.777778
vt 0.111111 0.777778
vt 0.222222 0.777778
vt 0.333333 0.777778
vt 0.444444 0.777778
vt 0.500000 0.722222
vt 0.500000 0.777778
vt 0.000000 0.888889
vt 0.111111 0.888889
vt 0.222222 0.888889
vt 0.333333 0.888889
vt 0.444444 0.888889
vt 0.500000 0.833333
vt 0.500000 0.888889
vt 0.111111 1.000000
vt 0.222222 1.000000
vt 0.333333 1.000000
vt 0.444444 1.000000
vt 0.500000 0.944444
vt 0.500000 1.000000
vn 0.707107 0.000000 -0.707107
vn 0.707107 0.000000 -0.707107
vn 0.755454 0.000000 -0.655202
vn 0.800000 0.000000 -0.600000
vn 0.800000 0.000000 -0.600000
vn 0.850651 0.000000 -0.525731
vn 0.894427 0.000000 -0.447214
vn 0.894427 0.000000 -0.447214
vn 0.937885 0.000000 -0.346946
vn 0.970143 0.000000 -0.242536
vn 0.970143 0.000000 -0.242536
vn 0.992508 0.000000 -0.122183
vn 1.000000 0.000000 0.000000
vn 1.000000 0.000000 0.000000
vn 1.000000 0.000000 0.000000
vn 1.000000 0.000000 0.000000
vn 1.000000 0.000000 0.000000
vn 0.992508 0.000000 0.122183
vn 0.970143 0.000000 0.242536
vn 0.970143 0.000000 0.242536
vn 0.937885 0.000000 0.346946
vn 0.894427 0.000000 0.447214
vn 0.894427 0.000000 0.447214
vn 0.850651 0.000000 0.525731
vn 0.800000 0.000000 0.600000
vn 0.800000 0.000000 0.600000
vn 0.755454 0.000000 0.655202
vn 0.707107 0.000000 0.707107
vn 0.707107 0.000000 0.707107
vn 0.696311 0.174078 -0.696311
vn 0.784465 0.196116 -0.588348
vn 0.872872 0.218218 -0.436436
vn 0.942809 0.235702 -0.235702
vn 0.970143 0.242536 0.000000
vn 0.970143 0.242536 0.000000
vn 0.942809 0.235702 0.235702
vn 0.872872 0.218218 0.436436
vn 0.784465 0.196116 0.588348
vn 0.696311 0.174078 0.696311
vn 0.666667 0.333333 -0.666667
vn 0.742781 0.371391 -0.557086
vn 0.816497 0.408248 -0.408248
vn 0.872872 0.436436 -0.218218
vn 0.894427 0.447214 0.000000
vn 0.894427 0.447214 0.000000
vn 0.872872 0.436436 0.218218
vn 0.816497 0.408248 0.408248
vn 0.742781 0.371391 0.557086
vn 0.666667 0.333333 0.666667
vn 0.624695 0.468521 -0.624695
vn 0.685994 0.514496 -0.514496
vn 0.742781 0.557086 -0.371391
vn 0.784465 0.588348 -0.196116
vn 0.800000 0.600000 0.000000
vn 0.800000 0.600000 0.000000
vn 0.784465 0.588348 0.196116
vn 0.742781 0.557086 0.371391
vn 0.685994 0.514496 0.514496
vn 0.624695 0.468521 0.624695
vn 0.577350 0.577350 -0.577350
vn 0.624695 0.624695 -0.468521
vn 0.666667 0.666667 -0.333333
vn 0.696311 0.696311 -0.174078
vn 0.707107 0.707107 0.000000
vn 0.707107 0.707107 0.000000
vn 0.696311 0.696311 0.174078
vn 0.666667 0.666667 0.333333
vn 0.624695 0.624695 0.468521
vn 0.577350 0.577350 0.577350
vn -0.707107 0.000000 0.707107
vn -0.707107 0.000000 0.707107
vn -0.755454 0.000000 0.655202
vn -0.800000 0.000000 0.600000
vn -0.800000 0.000000 0.600000
vn -0.850651 0.000000 0.525731
vn -0.894427 0.000000 0.447214
vn -0.894427 0.000000 0.447214
vn -0.937885 0.000000 0.346946
vn -0.970143 0.000000 0.242536
vn -0.970143 0.000000 0.242536
vn -0.992508 0.000000 0.122183
vn -1.000000 0.000000 0.000000
vn -1.000000 0.000000 0.000000
vn -1.000000 0.000000 0.000000
vn -1.000000 0.000000 0.000000
vn -1.000000 0.000000 0.000000
vn -0.992508 0.000000 -0.122183
vn -0.970143 0.000000 -0.242536
vn -0.970143 0.000000 -0.242536
vn -0.937885 0.000000 -0.346946
vn -0.894427 0.000000 -0.447214
vn -0.894427 0.000000 -0.447214
vn -0.850651 0.000000 -0.525731
vn -0.800000 0.000000 -0.600000
vn -0.800000 0.000000 -0.600000
vn -0.755454 0.000000 -0.655202
vn -0.707107 0.000000 -0.707107
vn -0.707107 0.000000 -0.707107
vn -0.696311 0.174078 0.696311
vn -0.784465 0.196116 0.588348
vn -0.872872 0.218218 0.436436
vn -0.942809 0.235702 0.235702
vn -0.970143 0.242536 0.000000
vn -0.970143 0.242536 0.000000
vn -0.942809 0.235702 -0.235702
vn -0.872872 0.218218 -0.436436
vn -0.784465 0.196116 -0.588348
vn -0.696311 0.174078 -0.696311
vn -0.666667 0.333333 0.666667
vn -0.742781 0.371391 0.557086
vn -0.816497 0.408248 0.408248
vn -0.872872 0.436436 0.218218
vn -0.894427 0.447214 0.000000
vn -0.894427 0.447214 0.000000
vn -0.872872 0.436436 -0.218218
vn -0.816497 0.408248 -0.408248
vn -0.742781 0.371391 -0.557086
vn -0.666667 0.333333 -0.666667
vn -0.624695 0.468521 0.624695
vn -0.685994 0.514496 0.514496
vn -0.742781 0.557086 0.371391
vn -0.784465 0.588348 0.196116
vn -0.800000 0.600000 0.000000
vn -0.800000 0.600000 0.000000
vn -0.784465 0.588348 -0.196116
vn -0.742781 0.557086 -0.371391
vn -0.685994 0.514496 -0.514496
vn -0.624695 0.468521 -0.624695
vn -0.577350 0.577350 0.577350
vn -0.624695 0.624695 0.468521
vn -0.666667 0.666667 0.333333
vn -0.696311 0.696311 0.174078
vn -0.707107 0.707107 0.000000
vn -0.707107 0.707107 0.000000
vn -0.696311 0.696311 -0.174078
vn -0.666667 0.666667 -0.333333
vn -0.624695 0.624695 -0.468521
vn -0.577350 0.577350 -0.577350
vn -0.577350 0.577350 -0.577350
vn -0.624695 0.624695 -0.468521
vn -0.468521 0.624695 -0.624695
vn -0.514496 0.685994 -0.514496
vn -0.333333 0.666667 -0.666667
vn -0.371391 0.742781 -0.557086
vn -0.174078 0.696311 -0.696311
vn -0.196116 0.784465 -0.588348
vn 0.000000 0.707107 -0.707107
vn 0.000000 0.800000 -0.600000
vn 0.000000 0.707107 -0.707107
vn 0.000000 0.800000 -0.600000
vn 0.174078 0.696311 -0.696311
vn 0.196116 0.784465 -0.588348
vn 0.333333 0.666667 -0.666667
vn 0.371391 0.742781 -0.557086
vn 0.468521 0.624695 -0.624695
vn 0.514496 0.685994 -0.514496
vn 0.577350 0.577350 -0.577350
vn 0.624695 0.624695 -0.468521
vn -0.666667 0.666667 -0.333333
vn -0.557086 0.742781 -0.371391
vn -0.408248 0.816497 -0.408248
vn -0.218218 0.872872 -0.436436
vn 0.000000 0.894427 -0.447214
vn 0.000000 0.894427 -0.447214
vn 0.218218 0.872872 -0.436436
vn 0.408248 0.816497 -0.408248
vn 0.557086 0.742781 -0.371391
vn 0.666667 0.666667 -0.333333
vn -0.696311 0.696311 -0.174078
vn -0.588348 0.784465 -0.196116
vn -0.436436 0.872872 -0.218218
vn -0.235702 0.942809 -0.235702
vn 0.000000 0.970143 -0.242536
vn 0.000000 0.970143 -0.242536
vn 0.235702 0.942809 -0.235702
vn 0.436436 0.872872 -0.218218
vn 0.588348 0.784465 -0.196116
vn 0.696311 0.696311 -0.174078
vn -0.707107 0.707107 0.000000
vn -0.600000 0.800000 0.000000
vn -0.447214 0.894427 0.000000
vn -0.242536 0.970143 0.000000
vn 0.000000 1.000000 0.000000
vn 0.000000 1.000000 0.000000
vn 0.242536 0.970143 0.000000
vn 0.447214 0.894427 0.000000
vn 0.600000 0.800000 0.000000
vn 0.707107 0.707107 0.000000
vn -0.707107 0.707107 0.000000
vn -0.600000 0.800000 0.000000
vn -0.447214 0.894427 0.000000
vn -0.242536 0.970143 0.000000
vn 0.000000 1.000000 0.000000
vn 0.000000 1.000000 0.000000
vn 0.242536 0.970143 0.000000
vn 0.447214 0.894427 0.000000
vn 0.600000 0.800000 0.000000
vn 0.707107 0.707107 0.000000
vn -0.696311 0.696311 0.174078
vn -0.588348 0.784465 0.196116
vn -0.436436 0.872872 0.218218
vn -0.235702 0.942809 0.235702
vn 0.000000 0.970143 0.242536
vn 0.000000 0.970143 0.242536
vn 0.235702 0.942809 0.235702
vn 0.436436 0.872872 0.218218
vn 0.588348 0.784465 0.196116
vn 0.696311 0.696311 0.174078
vn -0.666667 0.666667 0.333333
vn -0.557086 0.742781 0.371391
vn -0.408248 0.816497 0.408248
vn -0.218218 0.872872 0.436436
vn 0.000000 0.894427 0.447214
vn 0.000000 0.894427 0.447214
vn 0.218218 0.872872 0.436436
vn 0.408248 0.816497 0.408248
vn 0.557086 0.742781 0.371391
vn 0.666667 0.666667 0.333333
vn -0.624695 0.624695 0.468521
vn -0.514496 0.685994 0.514496
vn -0.371391 0.742781 0.557086
vn -0.196116 0.784465 0.588348
vn 0.000000 0.800000 0.600000
vn 0.000000 0.800000 0.600000
vn 0.196116 0.784465 0.588348
vn 0.371391 0.742781 0.557086
vn 0.514496 0.685994 0.514496
vn 0.624695 0.624695 0.468521
vn -0.468521 0.624695 0.624695
vn -0.333333 0.666667 0.666667
vn -0.174078 0.696311 0.696311
vn 0.000000 0.707107 0.707107
vn 0.000000 0.707107 0.707107
vn 0.174078 0.696311 0.696311
vn 0.333333 0.666667 0.666667
vn 0.468521 0.624695 0.624695
vn -0.707107 0.000000 0.707107
vn -0.655202 0.000000 0.755454
vn -0.707107 0.000000 0.707107
vn -0.600000 0.000000 0.800000
vn -0.600000 0.000000 0.800000
vn -0.696311 0.174078 0.696311
vn -0.588348 0.196116 0.784465
vn -0.666667 0.333333 0.666667
vn -0.557086 0.371391 0.742781
vn -0.624695 0.468521 0.624695
vn -0.514496 0.514496 0.685994
vn -0.577350 0.577350 0.577350
vn -0.468521 0.624695 0.624695
vn -0.525731 0.000000 0.850651
vn -0.447214 0.000000 0.894427
vn -0.447214 0.000000 0.894427
vn -0.436436 0.218218 0.872872
vn -0.408248 0.408248 0.816497
vn -0.371391 0.557086 0.742781
vn -0.333333 0.666667 0.666667
vn -0.346946 0.000000 0.937885
vn -0.242536 0.000000 0.970143
vn -0.242536 0.000000 0.970143
vn -0.235702 0.235702 0.942809
vn -0.218218 0.436436 0.872872
vn -0.196116 0.588348 0.784465
vn -0.174078 0.696311 0.696311
vn -0.122183 0.000000 0.992508
vn 0.000000 0.000000 1.000000
vn 0.000000 0.000000 1.000000
vn 0.000000 0.242536 0.970143
vn 0.000000 0.447214 0.894427
vn 0.000000 0.600000 0.800000
vn 0.000000 0.707107 0.707107
vn 0.000000 0.000000 1.000000
vn 0.000000 0.000000 1.000000
vn 0.000000 0.000000 1.000000
vn 0.000000 0.242536 0.970143
vn 0.000000 0.447214 0.894427
vn 0.000000 0.600000 0.800000
vn 0.000000 0.707107 0.707107
vn 0.122183 0.000000 0.992508
vn 0.242536 0.000000 0.970143
vn 0.242536 0.000000 0.970143
vn 0.235702 0.235702 0.942809
vn 0.218218 0.436436 0.872872
vn 0.196116 0.588348 0.784465
vn 0.174078 0.696311 0.696311
vn 0.346946 0.000000 0.937885
vn 0.447214 0.000000 0.894427
vn 0.447214 0.000000 0.894427
vn 0.436436 0.218218 0.872872
vn 0.408248 0.408248 0.816497
vn 0.371391 0.557086 0.742781
vn 0.333333 0.666667 0.666667
vn 0.525731 0.000000 0.850651
vn 0.600000 0.000000 0.800000
vn 0.600000 0.000000 0.800000
vn 0.588348 0.196116 0.784465
vn 0.557086 0.371391 0.742781
vn 0.514496 0.514496 0.685994
vn 0.468521 0.624695 0.624695
vn 0.655202 0.000000 0.755454
vn 0.707107 0.000000 0.707107
vn 0.707107 0.000000 0.707107
vn 0.696311 0.174078 0.696311
vn 0.666667 0.333333 0.666667
vn 0.624695 0.468521 0.624695
vn -0.468521 0.624695 -0.624695
vn -0.624695 0.468521 -0.624695
vn -0.514496 0.514496 -0.685994
vn -0.666667 0.333333 -0.666667
vn -0.557086 0.371391 -0.742781
vn -0.696311 0.174078 -0.696311
vn -0.588348 0.196116 -0.784465
vn -0.707107 0.000000 -0.707107
vn -0.600000 0.000000 -0.800000
vn -0.707107 0.000000 -0.707107
vn -0.655202 0.000000 -0.755454
vn -0.600000 0.000000 -0.800000
vn -0.333333 0.666667 -0.666667
vn -0.371391 0.557086 -0.742781
vn -0.408248 0.408248 -0.816497
vn -0.436436 0.218218 -0.872872
vn -0.447214 0.000000 -0.894427
vn -0.525731 0.000000 -0.850651
vn -0.447214 0.000000 -0.894427
vn -0.174078 0.696311 -0.696311
vn -0.196116 0.588348 -0.784465
vn -0.218218 0.436436 -0.872872
vn -0.235702 0.235702 -0.942809
vn -0.242536 0.000000 -0.970143
vn -0.346946 0.000000 -0.937885
vn -0.242536 0.000000 -0.970143
vn 0.000000 0.707107 -0.707107
vn 0.000000 0.600000 -0.800000
vn 0.000000 0.447214 -0.894427
vn 0.000000 0.242536 -0.970143
vn 0.000000 0.000000 -1.000000
vn -0.122183 0.000000 -0.992508
vn 0.000000 0.000000 -1.000000
vn 0.000000 0.707107 -0.707107
vn 0.000000 0.600000 -0.800000
vn 0.000000 0.447214 -0.894427
vn 0.000000 0.242536 -0.970143
vn 0.000000 0.000000 -1.000000
vn 0.000000 0.000000 -1.000000
vn 0.000000 0.000000 -1.000000
vn 0.174078 0.696311 -0.696311
vn 0.196116 0.588348 -0.784465
vn 0.218218 0.436436 -0.872872
vn 0.235702 0.235702 -0.942809
vn 0.242536 0.000000 -0.970143
vn 0.122183 0.000000 -0.992508
vn 0.242536 0.000000 -0.970143
vn 0.333333 0.666667 -0.666667
vn 0.371391 0.557086 -0.742781
vn 0.408248 0.408248 -0.816497
vn 0.436436 0.218218 -0.872872
vn 0.447214 0.000000 -0.894427
vn 0.346946 0.000000 -0.937885
vn 0.447214 0.000000 -0.894427
vn 0.468521 0.624695 -0.624695
vn 0.514496 0.514496 -0.685994
vn 0.557086 0.371391 -0.742781
vn 0.588348 0.196116 -0.784465
vn 0.600000 0.000000 -0.800000
vn 0.525731 0.000000 -0.850651
vn 0.600000 0.000000 -0.800000
vn 0.624695 0.468521 -0.624695
vn 0.666667 0.333333 -0.666667
vn 0.696311 0.174078 -0.696311
vn 0.707107 0.000000 -0.707107
vn 0.655202 0.000000 -0.755454
vn 0.707107 0.000000 -0.707107
usemtl M_Rounded_Beveled_Cube
f 1/1/1 2/2/2 3/3/3
f 4/4/4 3/3/3 2/2/2
f 4/4/4 2/2/2 5/5/5
f 4/4/4 5/5/5 6/6/6
f 7/7/7 6/6/6 5/5/5
f 7/7/7 5/5/5 8/8/8
f 7/7/7 8/8/8 9/9/9
f 10/10/10 9/9/9 8/8/8
f 10/10/10 8/8/8 11/11/11
f 10/10/10 11/11/11 12/12/12
f 13/13/13 12/12/12 11/11/11
f 13/13/13 11/11/11 14/14/14
f 13/13/13 14/14/14 15/15/15
f 16/16/16 15/15/15 14/14/14
f 16/16/16 14/14/14 17/17/17
f 16/16/16 17/17/17 18/18/18
f 19/19/19 18/18/18 17/17/17
f 19/19/19 17/17/17 20/20/20
f 19/19/19 20/20/20 21/21/21
f 22/22/22 21/21/21 20/20/20
f 22/22/22 20/20/20 23/23/23
f 22/22/22 23/23/23 24/24/24
f 25/25/25 24/24/24 23/23/23
f 25/25/25 23/23/23 26/26/26
f 25/25/25 26/26/26 27/27/27
f 28/28/28 27/27/27 26/26/26
f 28/28/28 26/26/26 29/29/29
f 2/2/2 30/30/30 5/5/5
f 5/5/5 30/30/30 31/31/31
f 5/5/5 31/31/31 8/8/8
f 8/8/8 31/31/31 32/32/32
f 8/8/8 32/32/32 11/11/11
f 11/11/11 32/32/32 33/33/33
f 11/11/11 33/33/33 14/14/14
f 14/14/14 33/33/33 34/34/34
f 14/14/14 34/34/34 17/17/17
f 17/17/17 34/34/34 35/35/35
f 17/17/17 35/35/35 20/20/20
f 20/20/20 35/35/35 36/36/36
f 20/20/20 36/36/36 23/23/23
f 23/23/23 36/36/36 37/37/37
f 23/23/23 37/37/37 26/26/26
f 26/26/26 37/37/37 38/38/38
f 26/26/26 38/38/38 29/29/29
f 29/29/29 38/38/38 39/39/39
f 30/30/30 40/40/40 31/31/31
f 31/31/31 40/40/40 41/41/41
f 31/31/31 41/41/41 32/32/32
f 32/32/32 41/41/41 42/42/42
f 32/32/32 42/42/42 33/33/33
f 33/33/33 42/42/42 43/43/43
f 33/33/33 43/43/43 34/34/34
f 34/34/34 43/43/43 44/44/44
f 34/34/34 44/44/44 35/35/35
f 35/35/35 44/44/44 45/45/45
f 35/35/35 45/45/45 36/36/36
f 36/36/36 45/45/45 46/46/46
f 36/36/36 46/46/46 37/37/37
f 37/37/37 46/46/46 47/47/47
f 37/37/37 47/47/47 38/38/38
f 38/38/38 47/47/47 48/48/48
f 38/38/38 48/48/48 39/39/39
f 39/39/39 48/48/48 49/49/49
f 40/40/40 50/50/50 41/41/41
f 41/41/41 50/50/50 51/51/51
f 41/41/41 51/51/51 42/42/42
f 42/42/42 51/51/51 52/52/52
f 42/42/42 52/52/52 43/43/43
f 43/43/43 52/52/52 53/53/53
f 43/43/43 53/53/53 44/44/44
f 44/44/44 53/53/53 54/54/54
f 44/44/44 54/54/54 45/45/45
f 45/45/45 54/54/54 55/55/55
f 45/45/45 55/55/55 46/46/46
f 46/46/46 55/55/55 56/56/56
f 46/46/46 56/56/56 47/47/47
f 47/47/47 56/56/56 57/57/57
f 47/47/47 57/57/57 48/48/48
f 48/48/48 57/57/57 58/58/58
f 48/48/48 58/58/58 49/49/49
f 49/49/49 58/58/58 59/59/59
f 50/50/50 60/60/60 51/51/51
f 51/51/51 60/60/60 61/61/61
f 51/51/51 61/61/61 52/52/52
f 52/52/52 61/61/61 62/62/62
f 52/52/52 62/62/62 53/53/53
f 53/53/53 62/62/62 63/63/63
f 53/53/53 63/63/63 54/54/54
f 54/54/54 63/63/63 64/64/64
f 54/54/54 64/64/64 55/55/55
f 55/55/55 64/64/64 65/65/65
f 55/55/55 65/65/65 56/56/56
f 56/56/56 65/65/65 66/66/66
f 56/56/56 66/66/66 57/57/57
f 57/57/57 66/66/66 67/67/67
f 57/57/57 67/67/67 58/58/58
f 58/58/58 67/67/67 68/68/68
f 58/58/58 68/68/68 59/59/59
f 59/59/59 68/68/68 69/69/69
f 70/70/70 71/71/71 72/72/72
f 73/73/73 72/72/72 71/71/71
f 73/73/73 71/71/71 74/74/74
f 73/73/73 74/74/74 75/75/75
f 76/76/76 75/75/75 74/74/74
f 76/76/76 74/74/74 77/77/77
f 76/76/76 77/77/77 78/78/78
f 79/79/79 78/78/78 77/77/77
f 79/79/79 77/77/77 80/80/80
f 79/79/79 80/80/80 81/81/81
f 82/82/82 81/81/81 80/80/80
f 82/82/82 80/80/80 83/83/83
f 82/82/82 83/83/83 84/84/84
f 85/85/85 84/84/84 83/83/83
f 85/85/85 83/83/83 86/86/86
f 85/85/85 86/86/86 87/87/87
f 88/88/88 87/87/87 86/86/86
f 88/88/88 86/86/86 89/89/89
f 88/88/88 89/89/89 90/90/90
f 91/91/91 90/90/90 89/89/89
f 91/91/91 89/89/89 92/92/92
f 91/91/91 92/92/92 93/93/93
f 94/94/94 93/93/93 92/92/92
f 94/94/94 92/92/92 95/95/95
f 94/94/94 95/95/95 96/96/96
f 97/97/97 96/96/96 95/95/95
f 97/97/97 95/95/95 98/98/98
f 71/71/71 99/99/99 74/74/74
f 74/74/74 99/99/99 100/100/100
f 74/74/74 100/100/100 77/77/77
f 77/77/77 100/100/100 101/101/101
f 77/77/77 101/101/101 80/80/80
f 80/80/80 101/101/101 102/102/102
f 80/80/80 102/102/102 83/83/83
f 83/83/83 102/102/102 103/103/103
f 83/83/83 103/103/103 86/86/86
f 86/86/86 103/103/103 104/104/104
f 86/86/86 104/104/104 89/89/89
f 89/89/89 104/104/104 105/105/105
f 89/89/89 105/105/105 92/92/92
f 92/92/92 105/105/105 106/106/106
f 92/92/92 106/106/106 95/95/95
f 95/95/95 106/106/106 107/107/107
f 95/95/95 107/107/107 98/98/98
f 98/98/98 107/107/107 108/108/108
f 99/99/99 109/109/109 100/100/100
f 100/100/100 109/109/109 110/110/110
f 100/100/100 110/110/110 101/101/101
f 101/101/101 110/110/110 111/111/111
f 101/101/101 111/111/111 102/102/102
f 102/102/102 111/111/111 112/112/112
f 102/102/102 112/112/112 103/103/103
f 103/103/103 112/112/112 113/113/113
f 103/103/103 113/113/113 104/104/104
f 104/104/104 113/113/113 114/114/114
f 104/104/104 114/114/114 105/105/105
f 105/105/105 114/114/114 115/115/115
f 105/105/105 115/115/115 106/106/106
f 106/106/106 115/115/115 116/116/116
f 106/106/106 116/116/116 107/107/107
f 107/107/107 116/116/116 117/117/117
f 107/107/107 117/117/117 108/108/108
f 108/108/108 117/117/117 118/118/118
f 109/109/109 119/119/119 110/110/110
f 110/110/110 119/119/119 120/120/120
f 110/110/110 120/120/120 111/111/111
f 111/111/111 120/120/120 121/121/121
f 111/111/111 121/121/121 112/112/112
f 112/112/112 121/121/121 122/122/122
f 112/112/112 122/122/122 113/113/113
f 113/113/113 122/122/122 123/123/123
f 113/113/113 123/123/123 114/114/114
f 114/114/114 123/123/123 124/124/124
f 114/114/114 124/124/124 115/115/115
f 115/115/115 124/124/124 125/125/125
f 115/115/115 125/125/125 116/116/116
f 116/116/116 125/125/125 126/126/126
f 116/116/116 126/126/126 117/117/117
f 117/117/117 126/126/126 127/127/127
f 117/117/117 127/127/127 118/118/118
f 118/118/118 127/127/127 128/128/128
f 119/119/119 129/129/129 120/120/120
f 120/120/120 129/129/129 130/130/130
f 120/120/120 130/130/130 121/121/121
f 121/121/121 130/130/130 131/131/131
f 121/121/121 131/131/131 122/122/122
f 122/122/122 131/131/131 132/132/132
f 122/122/122 132/132/132 123/123/123
f 123/123/123 132/132/132 133/133/133
f 123/123/123 133/133/133 124/124/124
f 124/124/124 133/133/133 134/134/134
f 124/124/124 134/134/134 125/125/125
f 125/125/125 134/134/134 135/135/135
f 125/125/125 135/135/135 126/126/126
f 126/126/126 135/135/135 136/136/136
f 126/126/126 136/136/136 127/127/127
f 127/127/127 136/136/136 137/137/137
f 127/127/127 137/137/137 128/128/128
f 128/128/128 137/137/137 138/138/138
f 139/139/139 140/140/140 141/141/141
f 141/141/141 140/140/140 142/142/142
f 141/141/141 142/142/142 143/143/143
f 143/143/143 142/142/142 144/144/144
f 143/143/143 144/144/144 145/145/145
f 145/145/145 144/144/144 146/146/146
f 145/145/145 146/146/146 147/147/147
f 147/147/147 146/146/146 148/148/148
f 147/147/147 148/148/148 149/149/149
f 149/149/149 148/148/148 150/150/150
f 149/149/149 150/150/150 151/151/151
f 151/151/151 150/150/150 152/152/152
f 151/151/151 152/152/152 153/153/153
f 153/153/153 152/152/152 154/154/154
f 153/153/153 154/154/154 155/155/155
f 155/155/155 154/154/154 156/156/156
f 155/155/155 156/156/156 157/157/157
f 157/157/157 156/156/156 158/158/158
f 140/140/140 159/159/159 142/142/142
f 142/142/142 159/159/159 160/160/160
f 142/142/142 160/160/160 144/144/144
f 144/144/144 160/160/160 161/161/161
f 144/144/144 161/161/161 146/146/146
f 146/146/146 161/161/161 162/162/162
f 146/146/146 162/162/162 148/148/148
f 148/148/148 162/162/162 163/163/163
f 148/148/148 163/163/163 150/150/150
f 150/150/150 163/163/163 164/164/164
f 150/150/150 164/164/164 152/152/152
f 152/152/152 164/164/164 165/165/165
f 152/152/152 165/165/165 154/154/154
f 154/154/154 165/165/165 166/166/166
f 154/154/154 166/166/166 156/156/156
f 156/156/156 166/166/166 167/167/167
f 156/156/156 167/167/167 158/158/158
f 158/158/158 167/167/167 168/168/168
f 159/159/159 169/169/169 160/160/160
f 160/160/160 169/169/169 170/170/170
f 160/160/160 170/170/170 161/161/161
f 161/161/161 170/170/170 171/171/171
f 161/161/161 171/171/171 162/162/162
f 162/162/162 171/171/171 172/172/172
f 162/162/162 172/172/172 163/163/163
f 163/163/163 172/172/172 173/173/173
f 163/163/163 173/173/173 164/164/164
f 164/164/164 173/173/173 174/174/174
f 164/164/164 174/174/174 165/165/165
f 165/165/165 174/174/174 175/175/175
f 165/165/165 175/175/175 166/166/166
f 166/166/166 175/175/175 176/176/176
f 166/166/166 176/176/176 167/167/167
f 167/167/167 176/176/176 177/177/177
f 167/167/167 177/177/177 168/168/168
f 168/168/168 177/177/177 178/178/178
f 169/169/169 179/179/179 170/170/170
f 170/170/170 179/179/179 180/180/180
f 170/170/170 180/180/180 171/171/171
f 171/171/171 180/180/180 181/181/181
f 171/171/171 181/181/181 172/172/172
f 172/172/172 181/181/181 182/182/182
f 172/172/172 182/182/182 173/173/173
f 173/173/173 182/182/182 183/183/183
f 173/173/173 183/183/183 174/174/174
f 174/174/174 183/183/183 184/184/184
f 174/174/174 184/184/184 175/175/175
f 175/175/175 184/184/184 185/185/185
f 175/175/175 185/185/185 176/176/176
f 176/176/176 185/185/185 186/186/186
f 176/176/176 186/186/186 177/177/177
f 177/177/177 186/186/186 187/187/187
f 177/177/177 187/187/187 178/178/178
f 178/178/178 187/187/187 188/188/188
f 179/179/179 189/189/189 180/180/180
f 180/180/180 189/189/189 190/190/190
f 180/180/180 190/190/190 181/181/181
f 181/181/181 190/190/190 191/191/191
f 181/181/181 191/191/191 182/182/182
f 182/182/182 191/191/191 192/192/192
f 182/182/182 192/192/192 183/183/183
f 183/183/183 192/192/192 193/193/193
f 183/183/183 193/193/193 184/184/184
f 184/184/184 193/193/193 194/194/194
f 184/184/184 194/194/194 185/185/185
f 185/185/185 194/194/194 195/195/195
f 185/185/185 195/195/195 186/186/186
f 186/186/186 195/195/195 196/196/196
f 186/186/186 196/196/196 187/187/187
f 187/187/187 196/196/196 197/197/197
f 187/187/187 197/197/197 188/188/188
f 188/188/188 197/197/197 198/198/198
f 189/189/189 199/199/199 190/190/190
f 190/190/190 199/199/199 200/200/200
f 190/190/190 200/200/200 191/191/191
f 191/191/191 200/200/200 201/201/201
f 191/191/191 201/201/201 192/192/192
f 192/192/192 201/201/201 202/202/202
f 192/192/192 202/202/202 193/193/193
f 193/193/193 202/202/202 203/203/203
f 193/193/193 203/203/203 194/194/194
f 194/194/194 203/203/203 204/204/204
f 194/194/194 204/204/204 195/195/195
f 195/195/195 204/204/204 205/205/205
f 195/195/195 205/205/205 196/196/196
f 196/196/196 205/205/205 206/206/206
f 196/196/196 206/206/206 197/197/197
f 197/197/197 206/206/206 207/207/207
f 197/197/197 207/207/207 198/198/198
f 198/198/198 207/207/207 208/208/208
f 199/199/199 209/209/209 200/200/200
f 200/200/200 209/209/209 210/210/210
f 200/200/200 210/210/210 201/201/201
f 201/201/201 210/210/210 211/211/211
f 201/201/201 211/211/211 202/202/202
f 202/202/202 211/211/211 212/212/212
f 202/202/202 212/212/212 203/203/203
f 203/203/203 212/212/212 213/213/213
f 203/203/203 213/213/213 204/204/204
f 204/204/204 213/213/213 214/214/214
f 204/204/204 214/214/214 205/205/205
f 205/205/205 214/214/214 215/215/215
f 205/205/205 215/215/215 206/206/206
f 206/206/206 215/215/215 216/216/216
f 206/206/206 216/216/216 207/207/207
f 207/207/207 216/216/216 217/217/217
f 207/207/207 217/217/217 208/208/208
f 208/208/208 217/217/217 218/218/218
f 209/209/209 219/219/219 210/210/210
f 210/210/210 219/219/219 220/220/220
f 210/210/210 220/220/220 211/211/211
f 211/211/211 220/220/220 221/221/221
f 211/211/211 221/221/221 212/212/212
f 212/212/212 221/221/221 222/222/222
f 212/212/212 222/222/222 213/213/213
f 213/213/213 222/222/222 223/223/223
f 213/213/213 223/223/223 214/214/214
f 214/214/214 223/223/223 224/224/224
f 214/214/214 224/224/224 215/215/215
f 215/215/215 224/224/224 225/225/225
f 215/215/215 225/225/225 216/216/216
f 216/216/216 225/225/225 226/226/226
f 216/216/216 226/226/226 217/217/217
f 217/217/217 226/226/226 227/227/227
f 217/217/217 227/227/227 218/218/218
f 218/218/218 227/227/227 228/228/228
f 219/219/219 129/129/129 220/220/220
f 220/220/220 129/129/129 229/229/229
f 220/220/220 229/229/229 221/221/221
f 221/221/221 229/229/229 230/230/230
f 221/221/221 230/230/230 222/222/222
f 222/222/222 230/230/230 231/231/231
f 222/222/222 231/231/231 223/223/223
f 223/223/223 231/231/231 232/232/232
f 223/223/223 232/232/232 224/224/224
f 224/224/224 232/232/232 233/233/233
f 224/224/224 233/233/233 225/225/225
f 225/225/225 233/233/233 234/234/234
f 225/225/225 234/234/234 226/226/226
f 226/226/226 234/234/234 235/235/235
f 226/226/226 235/235/235 227/227/227
f 227/227/227 235/235/235 236/236/236
f 227/227/227 236/236/236 228/228/228
f 228/228/228 236/236/236 69/69/69
f 237/237/237 238/238/238 239/239/239
f 239/239/239 238/238/238 240/240/240
f 239/239/239 240/240/240 241/241/241
f 239/239/239 241/241/241 242/242/242
f 242/242/242 241/241/241 243/243/243
f 242/242/242 243/243/243 244/244/244
f 244/244/244 243/243/243 245/245/245
f 244/244/244 245/245/245 246/246/246
f 246/246/246 245/245/245 247/247/247
f 246/246/246 247/247/247 248/248/248
f 248/248/248 247/247/247 249/249/249
f 240/240/240 250/250/250 241/241/241
f 241/241/241 250/250/250 251/251/251
f 241/241/241 251/251/251 252/252/252
f 241/241/241 252/252/252 243/243/243
f 243/243/243 252/252/252 253/253/253
f 243/243/243 253/253/253 245/245/245
f 245/245/245 253/253/253 254/254/254
f 245/245/245 254/254/254 247/247/247
f 247/247/247 254/254/254 255/255/255
f 247/247/247 255/255/255 249/249/249
f 249/249/249 255/255/255 256/256/256
f 251/251/251 257/257/257 252/252/252
f 252/252/252 257/257/257 258/258/258
f 252/252/252 258/258/258 259/259/259
f 252/252/252 259/259/259 253/253/253
f 253/253/253 259/259/259 260/260/260
f 253/253/253 260/260/260 254/254/254
f 254/254/254 260/260/260 261/261/261
f 254/254/254 261/261/261 255/255/255
f 255/255/255 261/261/261 262/262/262
f 255/255/255 262/262/262 256/256/256
f 256/256/256 262/262/262 263/263/263
f 258/258/258 264/264/264 259/259/259
f 259/259/259 264/264/264 265/265/265
f 259/259/259 265/265/265 266/266/266
f 259/259/259 266/266/266 260/260/260
f 260/260/260 266/266/266 267/267/267
f 260/260/260 267/267/267 261/261/261
f 261/261/261 267/267/267 268/268/268
f 261/261/261 268/268/268 262/262/262
f 262/262/262 268/268/268 269/269/269
f 262/262/262 269/269/269 263/263/263
f 263/263/263 269/269/269 270/270/270
f 265/265/265 271/271/271 266/266/266
f 266/266/266 271/271/271 272/272/272
f 266/266/266 272/272/272 273/273/273
f 266/266/266 273/273/273 267/267/267
f 267/267/267 273/273/273 274/274/274
f 267/267/267 274/274/274 268/268/268
f 268/268/268 274/274/274 275/275/275
f 268/268/268 275/275/275 269/269/269
f 269/269/269 275/275/275 276/276/276
f 269/269/269 276/276/276 270/270/270
f 270/270/270 276/276/276 277/277/277
f 272/272/272 278/278/278 273/273/273
f 273/273/273 278/278/278 279/279/279
f 273/273/273 279/279/279 280/280/280
f 273/273/273 280/280/280 274/274/274
f 274/274/274 280/280/280 281/281/281
f 274/274/274 281/281/281 275/275/275
f 275/275/275 281/281/281 282/282/282
f 275/275/275 282/282/282 276/276/276
f 276/276/276 282/282/282 283/283/283
f 276/276/276 283/283/283 277/277/277
f 277/277/277 283/283/283 284/284/284
f 279/279/279 285/285/285 280/280/280
f 280/280/280 285/285/285 286/286/286
f 280/280/280 286/286/286 287/287/287
f 280/280/280 287/287/287 281/281/281
f 281/281/281 287/287/287 288/288/288
f 281/281/281 288/288/288 282/282/282
f 282/282/282 288/288/288 289/289/289
f 282/282/282 289/289/289 283/283/283
f 283/283/283 289/289/289 290/290/290
f 283/283/283 290/290/290 284/284/284
f 284/284/284 290/290/290 291/291/291
f 286/286/286 292/292/292 287/287/287
f 287/287/287 292/292/292 293/293/293
f 287/287/287 293/293/293 294/294/294
f 287/287/287 294/294/294 288/288/288
f 288/288/288 294/294/294 295/295/295
f 288/288/288 295/295/295 289/289/289
f 289/289/289 295/295/295 296/296/296
f 289/289/289 296/296/296 290/290/290
f 290/290/290 296/296/296 297/297/297
f 290/290/290 297/297/297 291/291/291
f 291/291/291 297/297/297 298/298/298
f 293/293/293 299/299/299 294/294/294
f 294/294/294 299/299/299 300/300/300
f 294/294/294 300/300/300 301/301/301
f 294/294/294 301/301/301 295/295/295
f 295/295/295 301/301/301 302/302/302
f 295/295/295 302/302/302 296/296/296
f 296/296/296 302/302/302 303/303/303
f 296/296/296 303/303/303 297/297/297
f 297/297/297 303/303/303 304/304/304
f 297/297/297 304/304/304 298/298/298
f 298/298/298 304/304/304 69/69/69
f 139/139/139 305/305/305 306/306/306
f 306/306/306 305/305/305 307/307/307
f 306/306/306 307/307/307 308/308/308
f 308/308/308 307/307/307 309/309/309
f 308/308/308 309/309/309 310/310/310
f 310/310/310 309/309/309 311/311/311
f 310/310/310 311/311/311 312/312/312
f 312/312/312 311/311/311 313/313/313
f 314/314/314 312/312/312 313/313/313
f 314/314/314 313/313/313 315/315/315
f 315/315/315 313/313/313 316/316/316
f 305/305/305 317/317/317 307/307/307
f 307/307/307 317/317/317 318/318/318
f 307/307/307 318/318/318 309/309/309
f 309/309/309 318/318/318 319/319/319
f 309/309/309 319/319/319 311/311/311
f 311/311/311 319/319/319 320/320/320
f 311/311/311 320/320/320 313/313/313
f 313/313/313 320/320/320 321/321/321
f 316/316/316 313/313/313 321/321/321
f 316/316/316 321/321/321 322/322/322
f 322/322/322 321/321/321 323/323/323
f 317/317/317 324/324/324 318/318/318
f 318/318/318 324/324/324 325/325/325
f 318/318/318 325/325/325 319/319/319
f 319/319/319 325/325/325 326/326/326
f 319/319/319 326/326/326 320/320/320
f 320/320/320 326/326/326 327/327/327
f 320/320/320 327/327/327 321/321/321
f 321/321/321 327/327/327 328/328/328
f 323/323/323 321/321/321 328/328/328
f 323/323/323 328/328/328 329/329/329
f 329/329/329 328/328/328 330/330/330
f 324/324/324 331/331/331 325/325/325
f 325/325/325 331/331/331 332/332/332
f 325/325/325 332/332/332 326/326/326
f 326/326/326 332/332/332 333/333/333
f 326/326/326 333/333/333 327/327/327
f 327/327/327 333/333/333 334/334/334
f 327/327/327 334/334/334 328/328/328
f 328/328/328 334/334/334 335/335/335
f 330/330/330 328/328/328 335/335/335
f 330/330/330 335/335/335 336/336/336
f 336/336/336 335/335/335 337/337/337
f 331/331/331 338/338/338 332/332/332
f 332/332/332 338/338/338 339/339/339
f 332/332/332 339/339/339 333/333/333
f 333/333/333 339/339/339 340/340/340
f 333/333/333 340/340/340 334/334/334
f 334/334/334 340/340/340 341/341/341
f 334/334/334 341/341/341 335/335/335
f 335/335/335 341/341/341 342/342/342
f 337/337/337 335/335/335 342/342/342
f 337/337/337 342/342/342 343/343/343
f 343/343/343 342/342/342 344/344/344
f 338/338/338 345/345/345 339/339/339
f 339/339/339 345/345/345 346/346/346
f 339/339/339 346/346/346 340/340/340
f 340/340/340 346/346/346 347/347/347
f 340/340/340 347/347/347 341/341/341
f 341/341/341 347/347/347 348/348/348
f 341/341/341 348/348/348 342/342/342
f 342/342/342 348/348/348 349/349/349
f 344/344/344 342/342/342 349/349/349
f 344/344/344 349/349/349 350/350/350
f 350/350/350 349/349/349 351/351/351
f 345/345/345 352/352/352 346/346/346
f 346/346/346 352/352/352 353/353/353
f 346/346/346 353/353/353 347/347/347
f 347/347/347 353/353/353 354/354/354
f 347/347/347 354/354/354 348/348/348
f 348/348/348 354/354/354 355/355/355
f 348/348/348 355/355/355 349/349/349
f 349/349/349 355/355/355 356/356/356
f 351/351/351 349/349/349 356/356/356
f 351/351/351 356/356/356 357/357/357
f 357/357/357 356/356/356 358/358/358
f 352/352/352 359/359/359 353/353/353
f 353/353/353 359/359/359 360/360/360
f 353/353/353 360/360/360 354/354/354
f 354/354/354 360/360/360 361/361/361
f 354/354/354 361/361/361 355/355/355
f 355/355/355 361/361/361 362/362/362
f 355/355/355 362/362/362 356/356/356
f 356/356/356 362/362/362 363/363/363
f 358/358/358 356/356/356 363/363/363
f 358/358/358 363/363/363 364/364/364
f 364/364/364 363/363/363 365/365/365
f 359/359/359 60/60/60 360/360/360
f 360/360/360 60/60/60 366/366/366
f 360/360/360 366/366/366 361/361/361
f 361/361/361 366/366/366 367/367/367
f 361/361/361 367/367/367 362/362/362
f 362/362/362 367/367/367 368/368/368
f 362/362/362 368/368/368 363/363/363
f 363/363/363 368/368/368 369/369/369
f 365/365/365 363/363/363 369/369/369
f 365/365/365 369/369/369 370/370/370
f 370/370/370 369/369/369 371/371/371
